<svg width="268" height="277" viewBox="0 0 268 277" fill="none" xmlns="http://www.w3.org/2000/svg">
<path d="M0.0605438 277.327C-0.146013 270.263 0.241944 263.2 0.245351 256.137C0.246903 252.917 1.60389 252.26 4.45708 252.283C17.234 252.386 30.0123 252.328 43.4273 252.328C43.4273 248.398 43.0014 244.74 43.5057 241.216C45.1365 229.82 47.1079 218.473 48.9502 207.107C50.8369 195.468 55.525 184.29 55.0099 171.536C55.172 169.031 55.0099 167.193 54.8479 165.355C54.7974 164.904 54.7469 164.454 54.9641 163.665C55.2319 163.326 55.6407 163.318 55.7312 163.205C55.9351 162.798 55.8676 162.543 55.4158 162.326C55.2121 162.325 54.8049 162.322 54.8049 162.322C54.7589 161.249 54.713 160.176 54.8916 158.559C55.3112 157.807 55.4795 157.579 55.7157 157.218C55.9327 156.808 55.8697 156.547 55.5041 156.142C55.2167 155.73 55.0211 155.521 54.8002 155.336C54.7558 153.939 54.7113 152.543 55.0725 150.701C57.3554 148.944 59.2327 147.633 61.214 146.78C61.2671 158.619 61.2164 170 61.0411 181.563C61.0656 182.267 61.2146 182.789 61.3847 183.646C61.0474 184.769 60.6889 185.557 60.1736 186.567C59.8984 187.312 59.78 187.836 59.6314 188.777C59.3566 189.973 59.1119 190.752 58.7604 191.789C58.6515 192.788 58.6496 193.529 58.6159 194.685C56.3741 204.85 54.076 214.582 52.0552 224.371C51.7748 225.729 52.4708 228.364 53.3793 228.722C60.5432 231.546 65.4756 228.453 66.6703 220.77C66.7462 220.282 66.8531 219.798 67.1508 219.036C67.4495 217.629 67.5429 216.498 67.6367 215.018C67.7373 214.218 67.8376 213.768 68.1375 213.084C68.4473 212.048 68.5575 211.246 68.7323 210.045C68.8837 208.844 68.9704 208.042 69.1828 207.026C69.4158 206.329 69.5231 205.846 69.6744 204.95C70.1211 201.803 70.5239 199.07 71.1132 196.33C71.2995 196.323 71.6707 196.286 71.9834 196.162C74.3737 194.133 76.4511 192.228 78.5617 190.75C78.3472 191.98 78.0995 192.784 77.7824 193.848C77.6781 194.833 77.6432 195.556 77.6104 196.638C77.5012 197.457 77.3899 197.916 77.1284 198.631C76.8521 199.661 76.7259 200.436 76.5432 201.607C76.4166 202.799 76.3464 203.593 76.1444 204.532C75.8517 204.884 75.73 205.113 75.6218 205.82C75.3322 207.745 75.068 209.213 74.7689 210.82C74.7006 211.15 74.6964 211.343 74.7734 211.955C74.5143 213.741 74.2031 215.108 73.7827 216.676C73.6449 217.329 73.6163 217.782 73.5349 218.522C73.4045 218.988 73.327 219.167 73.0654 219.598C72.7927 220.67 72.7042 221.49 72.5782 222.69C72.4563 223.824 72.3719 224.58 72.1223 225.545C71.8454 226.268 71.7336 226.781 71.6011 227.546C71.5984 227.966 71.6164 228.133 71.8843 228.565C73.3005 229.139 74.4669 229.448 75.6308 230.121C75.6285 231.695 75.6286 232.906 75.4332 234.249C74.9761 234.564 74.7687 234.796 74.6156 235.076C66.6882 235.076 58.7608 235.076 50.2624 235.076C50.2624 241.28 50.3042 247.016 50.2502 252.751C50.2001 258.07 48.8122 258.812 43.4791 258.489C38.9362 258.214 34.3344 259.12 29.7518 259.237C25.4622 259.348 21.1639 259.085 16.8689 259.033C13.5311 258.993 10.1924 259.025 6.44878 259.025C6.44878 265.168 6.44878 270.786 6.53591 276.865C4.58138 277.327 2.53971 277.327 0.0605438 277.327Z" fill="#475569"/>
<path d="M75.6287 234.117C75.6286 232.906 75.6285 231.695 76.0834 230.064C80.2406 229.273 83.9429 228.902 87.7732 228.213C87.9855 227.684 88.0698 227.473 88.3025 227.009C88.3433 225.631 88.2357 224.506 88.0507 223.034C88.0215 222.22 88.07 221.752 88.2526 221.119C88.3072 220.429 88.2275 219.904 88.0738 218.916C88.0632 214.053 88.1267 209.654 88.3322 205.045C88.5208 204.332 88.5672 203.829 88.6811 202.922C89.1283 200.112 89.508 197.706 90.0354 195.104C90.3143 194.449 90.4455 193.991 90.6017 193.114C90.7716 191.881 90.9165 191.067 91.2033 190.005C91.4518 189.01 91.5585 188.262 91.7467 187.101C91.9619 185.866 92.0957 185.042 92.3275 184.109C92.5386 183.836 92.6138 183.656 92.7023 183.106C92.8393 182.281 92.9252 181.812 93.3381 181.313C98.9166 179.55 94.2941 176.606 94.4535 173.907C92.0476 170.865 89.7144 168.173 87.3147 165.434C87.2482 165.386 86.9463 165.256 86.8393 165.269C86.7323 165.282 86.6838 165.072 86.5727 164.91C86.2902 164.547 86.086 164.388 85.7636 164.272C85.6784 164.274 85.6761 164.104 85.5491 163.939C85.2286 163.57 85.0022 163.412 84.3732 163.386C83.692 164.149 83.3805 164.827 82.9893 165.594C82.9096 165.683 82.7709 166.123 82.7633 166.561C82.5558 168.132 82.3558 169.266 82.0321 170.628C81.8333 171.199 81.7582 171.541 81.8192 172.036C82.0395 172.481 81.9773 172.736 81.7074 173.224C81.621 173.672 81.5962 173.854 81.4839 174.46C81.2797 175.741 81.1631 176.599 80.9407 177.666C80.7603 178.337 80.6858 178.799 80.5641 179.672C80.1283 182.505 79.7395 184.928 79.1997 187.584C78.9385 188.349 78.8282 188.882 78.7406 189.656C78.7633 189.898 78.5286 190.323 78.5286 190.323C76.4511 192.228 74.3737 194.133 71.9825 195.811C71.6673 194.877 71.6658 194.172 71.6783 193.036C71.9112 191.778 72.1301 190.951 72.4332 189.927C72.5644 189.307 72.6114 188.883 72.6943 188.034C72.8483 186.487 72.9665 185.363 73.2082 184.125C73.4765 183.831 73.5769 183.63 73.6702 183.019C73.7777 181.854 73.8478 181.077 74.0589 180.147C74.3749 179.773 74.5074 179.53 74.6184 178.812C74.9188 176.912 75.198 175.462 75.5336 173.759C75.6104 172.812 75.6308 172.118 75.6757 171.026C75.9116 170.144 76.1229 169.659 76.4911 168.998C76.6755 168 76.7032 167.178 76.7678 165.942C77.1957 163.115 77.5867 160.703 78.1153 158.15C78.4196 157.801 78.5398 157.569 78.6297 156.924C78.7815 155.785 78.917 155.034 79.1517 154.238C79.2509 154.192 79.5464 153.877 79.8788 153.692C81.348 153.783 82.4848 154.06 83.7188 154.637C84.6811 155.421 85.5463 155.906 86.7276 156.592C88.0326 157.551 89.0213 158.309 89.979 159.068C89.9479 159.069 89.9078 158.964 90.1017 159.292C92.0563 161.27 93.817 162.92 95.6818 164.732C95.9498 165.096 96.1481 165.255 96.6713 165.53C97.8541 166.887 98.7462 168.088 99.6583 169.554C99.8716 170.307 100.065 170.795 100.386 171.713C100.405 174.228 100.298 176.312 100.064 178.528C99.7899 178.856 99.685 179.073 99.5891 179.694C99.4712 180.836 99.388 181.596 99.167 182.507C98.8589 182.875 98.7314 183.115 98.6272 183.829C98.3125 185.74 98.0173 187.199 97.6792 188.845C97.6167 189.412 97.597 189.794 97.5287 190.493C97.388 191.006 97.2957 191.2 97.0563 191.691C96.813 193.089 96.7167 194.19 96.557 195.695C96.1866 198.24 95.8796 200.38 95.6568 202.765C96.966 203.021 98.191 203.033 99.8754 202.922C102.149 202.767 103.986 202.539 105.773 202.745C108.783 203.092 109.916 201.619 110.163 198.913C111.31 186.366 112.476 173.82 113.565 161.082C113.368 160.643 113.195 160.433 112.854 160.25C112.731 160.238 112.687 159.994 112.586 159.85C112.33 159.525 112.15 159.376 111.824 159.25C111.705 159.24 111.675 159.004 111.571 158.859C111.307 158.533 111.115 158.395 110.634 158.157C110.138 157.702 109.9 157.391 109.563 156.917C109.304 156.551 109.111 156.387 108.781 156.26C108.678 156.255 108.689 156.049 108.581 155.893C108.307 155.543 108.109 155.39 107.597 155.123C106.768 154.321 106.22 153.674 105.578 152.878C105.333 152.541 105.153 152.391 104.648 152.134C103.777 151.346 103.199 150.701 102.565 149.901C102.393 149.544 102.224 149.41 101.69 149.171C99.7483 147.612 98.1183 146.225 96.4695 144.722C96.4505 144.606 96.0543 144.421 95.9219 144.361C95.7894 144.3 95.7298 144.015 95.7063 143.763C95.645 143.347 95.6073 143.182 95.7377 142.73C97.1564 142.067 98.4068 141.691 100.029 141.317C100.897 141.312 101.394 141.307 102.168 141.507C102.913 142.213 103.379 142.713 103.856 143.233C103.867 143.253 103.936 143.314 104.147 143.376C104.359 143.438 104.586 143.816 104.71 143.931C105.014 144.188 105.212 144.296 105.743 144.52C109.699 148.153 113.339 151.637 116.945 155.112C116.909 155.103 116.861 154.977 117.089 155.328C118.334 157.815 120.198 159.948 120.207 162.087C120.231 168.146 119.634 174.222 119.023 180.265C118.286 187.54 117.283 194.787 116.234 203.37C121.367 202.586 125.725 201.921 130.205 201.044C130.454 200.52 130.521 200.197 130.411 199.706C130.193 199.25 130.286 199.031 130.596 198.38C130.6 196.498 130.581 195.128 130.414 193.366C130.364 189.611 130.463 186.249 130.585 182.426C130.615 179.667 130.623 177.369 130.89 174.727C134.324 173.535 135.512 171.51 135.002 168.268C134.746 166.646 134.857 164.966 134.96 163.115C135.178 162.117 135.239 161.318 135.118 160.081C134.998 156.846 135.059 154.05 135.194 151.17C135.373 150.873 135.365 150.663 135.129 150.087C135.086 149.21 135.157 148.704 135.262 148.081C135.291 147.703 135.176 147.5 134.816 146.902C134.857 137.361 135.036 128.271 135.326 118.933C135.514 117.966 135.592 117.246 135.724 116.213C135.846 115.697 135.914 115.495 136.118 115.149C136.417 114.793 136.538 114.559 136.647 114.006C136.976 113.241 137.272 112.773 137.878 112.205C138.676 111.207 139.164 110.31 139.752 109.052C140.024 108.513 140.198 108.334 140.437 108.087C140.502 108.018 140.697 107.689 140.665 107.577C140.633 107.465 140.843 107.366 141.001 107.224C141.352 106.874 141.508 106.639 141.724 106.078C142.481 104.973 143.139 104.17 143.968 103.235C144.353 102.906 144.522 102.676 144.71 102.103C144.889 101.617 145.005 101.441 145.241 101.172C145.504 100.935 145.613 100.767 145.682 100.483C145.676 100.39 145.863 100.379 146.029 100.194C146.374 99.5503 146.553 99.0911 146.711 98.5416C146.69 98.4513 146.871 98.4115 147.163 98.2602C147.857 96.8968 148.26 95.6847 148.723 94.0689C149.318 92.1286 149.853 90.592 150.457 88.8378C150.436 87.8749 150.347 87.1294 149.679 86.2763C148.712 86.2298 148.324 86.2909 147.926 86.3617C147.916 86.3712 147.889 86.4015 147.641 86.7082C144.72 88.4368 142.048 89.8587 139.268 91.3178C139.16 91.3551 138.785 91.6088 138.533 91.8326C138.06 92.0903 137.838 92.1243 137.648 91.778C137.999 89.1186 138.317 86.8396 138.686 84.4238C138.736 84.287 139.021 84.2277 139.077 84.2349C139.132 84.2421 139.255 84.0692 139.591 83.8576C143.463 81.7947 146.998 79.9433 150.762 78.2461C151.427 77.7917 151.863 77.1832 152.459 76.3104C153.168 75.4378 153.716 74.8294 154.317 74.1867C154.369 74.1524 154.523 73.9613 154.711 73.6714C156.253 71.9457 157.607 70.5099 159.389 69.1029C162.931 69.1621 163.651 67.3014 163.489 64.4089C164.377 63.4481 165.138 62.7225 166.285 62.0163C170.601 61.0265 172.679 58.5607 172.85 54.094C174.904 53.3739 176.757 52.9957 178.599 52.9703C177.943 55.5033 177.299 57.6836 176.361 60.0849C175.746 60.6741 175.425 61.0422 174.999 61.4741C174.894 61.5379 174.582 61.9132 174.544 62.059C174.506 62.2048 174.214 62.2769 174.089 62.3747C173.806 62.6165 173.675 62.7816 173.545 63.0964C173.521 63.2253 173.262 63.2663 173.124 63.3676C172.813 63.6212 172.669 63.7977 172.529 64.119C172.502 64.2395 172.257 64.2599 172.125 64.3549C171.828 64.5911 171.688 64.7547 171.435 65.2323C170.953 65.7775 170.61 66.0309 170.128 66.3828C169.812 66.6328 169.671 66.8114 169.546 67.1347C169.528 67.2523 169.291 67.2757 169.171 67.3722C168.902 67.6126 168.787 67.7797 168.61 68.3164C166.705 70.5762 164.894 72.4894 162.982 74.4713C162.881 74.54 162.565 74.9132 162.53 75.0579C162.496 75.2026 162.206 75.2725 162.085 75.3664C161.811 75.5969 161.677 75.7504 161.487 76.1235C161.413 76.3265 161.039 76.543 160.991 76.5381C160.942 76.5332 160.861 76.7002 160.636 77.016C159.634 77.9939 158.856 78.6561 157.983 79.4052C157.766 79.615 157.661 79.7509 157.539 80.048C157.505 80.1963 157.218 80.2961 157.087 80.4742C156.805 80.9121 156.714 81.1912 156.796 81.8726C156.831 83.575 156.752 84.8946 156.778 86.5616C158.044 87.2387 159.204 87.8454 160.365 87.8484C164.478 87.8588 168.591 87.6629 172.713 87.8804C173.692 89.861 174.661 91.5063 175.202 93.2285C169.975 93.3147 165.177 93.2815 160.381 93.3706C159.459 93.3877 158.546 93.8851 157.548 93.9332C156.837 93.8475 156.206 93.9894 155.451 94.4262C154.995 95.2634 154.663 95.8057 154.187 96.5034C153.868 96.8819 153.737 97.129 153.628 97.7604C153.128 99.2065 152.65 100.292 152.042 101.485C151.758 101.76 151.649 101.955 151.497 102.519C151.27 103.055 151.132 103.248 150.903 103.531C150.702 103.757 150.618 103.907 150.57 104.159C150.582 104.247 150.405 104.269 150.241 104.411C149.874 104.767 149.719 105.009 149.564 105.57C149.42 106.028 149.322 106.196 149.086 106.489C148.782 106.804 148.665 107.021 148.615 107.286C148.632 107.308 148.576 107.309 148.394 107.464C147.983 107.842 147.793 108.096 147.547 108.66C147.329 109.095 147.207 109.25 146.977 109.487C146.738 109.698 146.634 109.846 146.549 110.127C146.54 110.242 146.31 110.263 146.158 110.387C145.817 110.701 145.678 110.922 145.505 111.55C145.276 112.137 145.128 112.348 144.935 112.564C144.888 112.57 144.834 112.726 144.705 112.927C144.577 113.128 144.129 113.294 144.023 113.391C143.784 113.626 143.67 113.779 143.456 114.342C142.759 116.532 141.731 118.314 141.685 120.121C141.499 127.388 141.705 134.665 141.584 141.936C141.529 145.189 141.046 148.434 140.702 152.019C140.836 154.656 141.024 156.956 141.378 159.701C141.543 164.509 141.543 168.873 141.543 173.331C146.455 173.331 150.56 173.331 154.854 173.195C155.281 172.851 155.472 172.608 155.657 171.861C155.713 166.418 155.843 161.44 155.718 156.468C155.533 149.069 155.169 141.675 155.06 133.936C155.364 131.173 155.489 128.754 155.657 125.942C155.814 124.77 155.927 123.99 156.165 123.098C156.44 122.808 156.545 122.61 156.659 122.007C157.27 120.79 157.827 119.954 158.444 119.056C158.503 118.996 158.649 118.69 158.798 118.372C160.343 116.456 161.74 114.859 163.243 113.192C163.484 113.012 163.596 112.884 163.752 112.582C163.817 112.427 164.145 112.352 164.245 112.258C164.473 112.031 164.581 111.883 164.692 111.587C164.715 111.453 164.976 111.382 165.107 111.297C165.402 111.084 165.544 110.934 165.79 110.425C166.342 109.505 166.768 108.923 167.32 108.316C167.447 108.291 167.682 108.184 168.053 108.224C174.047 109.773 175.062 114.546 176.37 119.663C176.563 122.242 176.581 124.395 176.612 126.774C176.806 127.409 176.987 127.818 177.331 128.538C177.867 129.686 178.24 130.524 178.548 131.676C177.863 133.104 177.243 134.219 176.285 135.325C175.272 135.294 174.596 135.27 173.638 135.062C172.789 133.657 172.222 132.438 171.623 130.977C171.407 130.288 171.224 129.841 170.909 129.085C170.747 128.555 170.716 128.334 170.795 127.814C171.865 125.984 172.825 124.453 173.785 122.921C172.46 122.147 171.135 121.373 169.741 120.341C169.752 119.562 169.831 119.041 170.134 118.377C169.785 117.749 169.213 117.264 168.522 116.994C168.403 117.207 167.95 117.391 167.951 117.402C167.953 117.414 167.94 117.415 167.732 117.756C165.784 120.521 164.043 122.945 162.181 125.547C162.16 126.245 162.26 126.764 162.321 127.705C162.045 134.875 161.696 141.624 161.599 148.377C161.479 156.623 161.57 164.873 161.57 173.027C165.807 173.027 169.357 173.027 173.278 173.027C173.278 166.864 173.17 161.062 173.347 155.269C173.397 153.621 174.275 151.998 174.93 150.29C175.29 150.095 175.455 149.935 176.004 149.621C178.682 149.505 180.939 149.505 183.951 149.505C182.327 146.735 181.102 144.648 180.217 142.442C183.206 143.005 185.854 143.688 188.546 144.367C188.59 144.363 188.595 144.449 188.688 144.604C188.919 144.957 189.084 145.131 189.444 145.592C189.956 146.226 190.298 146.548 190.667 146.993C190.798 147.272 190.942 147.339 191.278 147.584C191.474 148.052 191.521 148.252 191.501 148.667C191.433 148.883 191.342 149.327 191.186 149.661C190.892 151.737 190.754 153.478 190.223 155.248C188.099 155.564 186.367 155.851 184.635 156.138C183.429 155.925 182.223 155.711 179.644 155.254C179.644 159.446 179.644 163.401 179.636 168.263C179.635 171.904 179.643 174.636 179.651 177.368C179.619 177.54 179.587 177.713 179.31 178.205C178.893 178.652 178.758 178.81 178.658 178.998C176.63 179.117 174.602 179.235 171.713 179.344C168.457 179.581 166.061 179.827 163.664 180.074C160.302 179.82 156.94 179.566 152.741 179.322C150.158 179.58 148.411 179.829 146.663 180.077C143.914 179.802 141.165 179.527 137.807 179.371C136.97 179.617 136.777 179.783 136.619 179.988C136.619 179.988 136.543 180.276 136.258 180.515C136.005 181.569 136.035 182.385 136.065 183.2C136.127 190.651 136.189 198.103 136.023 206.186C135.701 207.205 135.608 207.592 135.514 207.979C135.514 207.979 135.465 208.276 135 208.277C133.258 208.476 131.982 208.675 130.705 208.874C125.571 208.942 120.437 209.011 114.646 208.792C113.685 208.442 113.378 208.417 113.067 208.428C111.337 208.519 109.606 208.61 107.02 208.521C104.794 208.357 103.424 208.372 102.053 208.387L101.81 208.677C101.81 208.677 101.431 208.676 100.889 208.511C98.305 208.404 96.2625 208.462 94.22 208.52C94.1691 216.058 94.2016 223.598 94.0137 231.133C93.9613 233.235 93.9093 235.359 90.2906 234.949C85.7857 234.439 81.1621 234.977 76.1443 234.785C75.6988 234.507 75.6287 234.117 75.6287 234.117Z" fill="#475569"/>
<path d="M138.635 84.5606C138.317 86.8396 137.999 89.1187 137.626 91.8552C137.572 92.3128 137.417 92.2699 137.278 92.3393C136.958 92.5188 136.809 92.662 136.417 93.04C135.561 93.589 134.98 93.9365 134.252 94.3736C133.921 94.604 133.771 94.7757 133.336 95.1736C131.287 96.4128 129.559 97.4567 127.85 98.5006C127.869 98.5007 127.902 98.4406 127.648 98.7419C123.914 101.143 120.434 103.242 116.95 105.358C116.945 105.375 116.945 105.369 116.738 105.721C115.845 106.48 115.159 106.888 114.329 107.353C113.996 107.509 113.836 107.641 113.448 107.99C112.987 108.223 112.783 108.274 112.412 108.398C112.029 108.589 111.841 108.741 111.331 109.021C110.504 109.177 110.026 109.24 109.309 109.322C108.629 109.505 108.186 109.667 107.362 109.966C106.449 110.194 105.918 110.285 105.064 110.347C104.098 110.335 103.453 110.354 102.404 110.34C101.192 110.31 100.384 110.313 99.3766 110.039C97.636 107.35 96.096 104.936 94.8008 102.476C95.0456 102.429 95.537 102.355 95.9527 102.393C97.9012 103.016 99.4339 103.601 101.225 104.225C102.017 104.249 102.55 104.234 103.337 104.101C104.134 104.063 104.677 104.144 105.455 104.192C106.001 104.088 106.286 103.961 106.877 103.592C109.439 102.397 111.67 101.386 114.034 100.297C114.336 100.098 114.471 99.9462 114.841 99.5541C116.032 98.6869 116.953 98.0299 118.218 97.3634C119.575 96.6625 120.59 95.9711 121.739 94.9964C122.565 94.2709 123.255 93.8285 124.183 93.3392C124.833 93.0462 125.245 92.8002 125.838 92.2778C126.962 91.4458 127.905 90.8902 128.984 90.1488C129.004 89.409 128.888 88.8549 128.45 88.1622C127.251 86.6394 126.375 85.2553 125.305 83.7796C124.612 83.8881 124.112 84.0882 123.394 84.5716C122.103 85.3577 121.031 85.8604 119.932 86.3899C119.905 86.4168 119.811 86.5322 119.531 86.8213C118.988 87.1699 118.727 87.2296 118.321 87.3477C117.992 87.503 117.835 87.6333 117.427 87.9967C116.923 88.2276 116.697 88.2591 116.331 88.3453C116.008 88.4903 115.851 88.6131 115.388 88.9894C113.642 89.9122 112.227 90.6138 110.676 91.3331C110.267 91.4181 110.02 91.5375 109.394 91.9514C106.194 92.1605 103.398 92.1272 100.393 91.9366C99.6934 91.619 99.2019 91.4586 98.3933 91.2444C97.9012 91.067 97.7259 90.9435 97.4858 90.7208C97.4208 90.6215 97.0784 90.2972 96.5707 90.133C95.7551 89.7907 95.4471 89.6127 95.168 89.4249C95.1969 89.4152 95.3207 89.4194 94.923 89.3154C93.5403 88.7652 92.5552 88.319 91.5011 87.7662C91.3192 87.5281 91.1823 87.4305 90.803 87.0794C88.3026 82.7199 85.0632 79.8478 80.1243 78.6004C77.7954 78.5874 75.7869 78.6786 73.4423 78.9462C72.857 79.167 72.6078 79.2112 71.9943 79.2564C70.2963 79.9507 68.9626 80.6441 67.6263 81.3312C67.6237 81.325 67.6371 81.3329 67.4372 81.4515C66.9855 81.7569 66.7734 81.9811 66.4429 82.5397C65.252 84.0228 64.2191 85.2088 63.0504 86.5863C62.7995 87.2281 62.6844 87.6786 62.5251 88.4471C62.3855 88.9566 62.2902 89.1482 62.0127 89.524C61.7474 90.2112 61.6643 90.7142 61.4949 91.4997C61.3371 91.9657 61.2656 92.1491 61.0772 92.4323C60.824 92.8576 60.9008 93.1205 61.2719 93.7831C61.4266 108.354 61.5003 122.462 61.4151 136.868C59.1146 138.221 56.9729 139.277 54.8312 140.333C54.778 139.578 54.7247 138.822 55.0938 137.685C56.3752 136.777 57.2344 136.251 58.0936 135.725C57.0014 135.261 55.9093 134.797 54.8171 134.333C54.7685 127.637 54.7199 120.942 54.9132 113.742C55.0453 112.937 54.9354 112.635 54.8255 112.334C54.7733 111.577 54.7211 110.821 54.9125 109.651C55.0471 108.937 54.9382 108.635 54.8293 108.334C54.7768 107.884 54.7243 107.435 54.9893 106.537C55.1413 105.433 54.9758 104.778 54.8102 104.123C54.7608 102.429 54.7113 100.735 54.9397 98.6848C55.2177 98.3276 55.6239 98.3221 55.7179 98.2111C55.9325 97.8064 55.8692 97.5497 55.417 97.3276C55.2121 97.3256 54.8023 97.32 54.8023 97.32C54.7678 96.5649 54.7333 95.8097 54.838 94.5654C55.0611 93.7897 54.9918 93.5423 54.7695 93.3341C54.7543 93.1342 54.7391 92.9343 55.0971 92.3313C55.5373 91.0668 55.6044 90.2053 55.6715 89.3438C55.6745 89.1544 55.6775 88.965 55.9658 88.3261C56.3883 87.4001 56.5255 86.9237 56.6627 86.4472C57.0046 85.5993 57.3466 84.7515 57.9687 83.446C58.4102 82.7845 58.5269 82.5578 58.5988 82.308C58.6366 82.1189 58.6745 81.9299 59.0134 81.4216C59.4755 80.9621 59.599 80.7941 59.6846 80.5983C59.6846 80.5983 59.6854 80.3877 59.9272 80.3062C60.3439 80.1009 60.4785 79.9426 60.5727 79.75C62.3388 78.3027 64.1048 76.8554 66.4232 75.2595C67.2408 74.954 67.4754 74.7601 67.6795 74.5293C67.6795 74.5293 67.7447 74.3254 67.9566 74.2934C68.3106 74.1641 68.431 74.0449 68.5298 73.9039C68.9569 73.7267 69.3841 73.5496 70.3481 73.3066C70.7856 72.9405 70.6863 72.6402 70.5869 72.3399C69.7044 71.3972 68.8219 70.4545 67.7162 69.1078C67.3757 68.5607 67.2316 68.4542 67.0606 68.384C66.9295 67.9256 66.7984 67.4671 66.6557 66.2915C66.1379 63.8562 65.6318 62.1379 65.1257 60.4196C65.0614 59.6134 64.997 58.8072 65.1515 57.4083C65.4692 56.3694 65.5681 55.9232 65.667 55.477C65.6969 54.9825 65.7269 54.488 65.986 53.4964C66.3886 52.7994 66.5204 52.5751 66.6107 52.3264C66.6912 52.0982 66.7716 51.8701 67.1704 51.2673C67.6093 50.6604 67.6845 50.4144 67.7145 50.1547C67.8865 49.7077 68.0585 49.2607 68.8492 48.5564C70.2114 47.3731 70.9549 46.4469 71.6984 45.5208C71.6984 45.5208 71.7212 45.3621 71.9071 45.3328C72.093 45.3035 72.4672 45.0439 72.4672 45.0439C73.0148 44.569 73.5624 44.0942 74.5764 43.4034C75.2269 43.09 75.3726 42.952 75.4799 42.7735C78.6579 42.2785 81.8359 41.7835 85.4341 41.5368C85.8543 41.7851 86.2366 41.8529 86.2366 41.8529L86.5903 41.6792C89.1411 42.762 91.692 43.8448 94.5197 45.4037C94.9634 46.0894 95.1649 46.2574 95.4012 46.3837C95.4012 46.3837 95.5798 46.3903 95.68 46.6436C95.945 47.1027 96.145 47.2654 96.38 47.3851C96.38 47.3851 96.5716 47.3811 96.6799 47.6382C96.9568 48.0968 97.159 48.2551 97.3951 48.3703C98.0921 49.4805 98.7892 50.5908 99.6137 52.2029C99.8485 52.9263 99.9974 53.115 100.188 53.2711C100.282 53.7705 100.376 54.2701 100.517 55.5733C100.571 58.6532 100.579 60.9295 100.587 63.2057C100.524 63.6979 100.462 64.19 100.164 65.1688C99.7804 65.8515 99.6771 66.0694 99.6196 66.309C98.4628 68.2178 97.306 70.1265 95.6705 72.2589C94.9783 72.6229 94.8016 72.8 94.6616 73.0138C94.3127 73.346 93.9637 73.6783 93.131 74.1643C92.3548 74.3766 92.0912 74.4976 91.8566 74.6811C91.2146 75.3763 90.5727 76.0716 89.4213 77.3185C91.6148 79.2817 93.8587 81.2899 96.5741 83.6371C97.4665 84.1204 97.8873 84.2648 98.3081 84.4092C98.8932 84.7318 99.4782 85.0545 100.516 85.659C101.182 86.1043 101.417 86.2275 101.673 86.3103C103.416 86.3315 105.159 86.3526 107.487 86.3032C108.267 86.1278 108.428 85.9861 108.557 85.8076C109.145 85.4208 109.734 85.0341 110.893 84.4689C111.862 84.0116 112.26 83.7328 112.658 83.454C112.658 83.454 112.646 83.3636 112.85 83.2704C113.258 83.0409 113.433 82.8739 113.577 82.6762C114.407 82.2713 115.236 81.8665 116.569 81.3313C117.276 81.0748 117.446 80.9133 117.581 80.7163C118.383 80.2891 119.185 79.8618 120.514 79.2753C121.282 78.9505 121.491 78.7516 121.668 78.5193C121.668 78.5193 121.69 78.3774 122.1 78.3745C123.563 77.735 124.617 77.0986 125.67 76.4622C125.67 76.4622 125.725 76.3503 126.125 76.3613C127.557 75.6897 128.589 75.007 129.622 74.3244C129.828 74.0595 130.035 73.7946 130.838 73.4453C134.507 73.842 137.132 73.722 136.677 69.4614C136.677 69.4614 136.717 69.3368 136.936 69.2547C137.354 69.0159 137.518 68.8286 137.646 68.6107C137.646 68.6107 137.749 68.2805 137.96 68.2118C138.172 68.1431 138.284 67.9579 138.284 67.9579C138.503 67.8077 138.721 67.6575 139.511 67.3117C140.314 66.9447 140.512 66.7399 140.675 66.5017C140.675 66.5017 140.657 66.3951 141.087 66.3761C144.559 66.0657 147.312 65.3933 147.734 61.6445C147.734 61.6445 147.66 61.4489 147.912 61.2649C148.357 60.8681 148.512 60.6314 148.632 60.3708C148.992 55.2798 149.352 50.1888 150.066 44.4462C150.821 42.6382 151.221 41.4818 151.62 40.3255C151.717 39.7693 151.813 39.2131 152.179 38.2849C152.449 37.9128 152.488 37.7464 152.488 37.7464C152.672 37.3621 152.855 36.9779 153.674 36.4294C155.125 35.1037 155.941 33.9421 156.756 32.7805C156.756 32.7805 156.762 32.4617 156.958 32.2626C157.191 31.7658 157.093 31.5189 156.859 31.3227C156.605 31.2338 156.351 31.145 155.708 30.7822C155.319 30.5083 155.043 30.387 155.043 30.387C154.711 30.1428 154.38 29.8986 153.807 29.1012C152.692 27.7726 151.817 26.9973 150.942 26.222C150.942 26.222 150.719 26.2086 150.643 25.8569C150.253 25.1122 149.94 24.7191 149.626 24.326C149.626 24.326 149.623 24.3266 149.557 24.1495C149.379 23.7456 149.229 23.5469 149.043 23.3762C148.949 23.1863 148.855 22.9963 148.682 22.2512C148.403 21.2574 148.204 20.8187 148.005 20.38C147.943 17.9617 147.881 15.5435 148.071 12.5633C148.468 11.8142 148.573 11.6068 148.637 11.379C148.695 10.8422 148.752 10.3054 149.136 9.36988C149.463 8.9711 149.658 8.56732 149.658 8.56732C149.747 8.27308 149.836 7.97885 150.225 7.35748C150.525 7.03035 150.585 7.03745 150.585 7.03745C150.683 6.85815 150.782 6.67885 151.106 6.34599C151.331 6.19243 151.201 6.16362 151.201 6.16362C151.71 5.72337 152.218 5.28313 153.119 4.41224C153.51 3.9816 153.654 3.70004 153.654 3.70004C153.966 3.30131 154.277 2.90259 154.956 2.31744C155.324 2.13102 155.38 2.02221 155.38 2.02221C155.842 1.80982 156.304 1.59742 157.345 1.25561C158.172 0.989855 158.394 0.819749 158.591 0.615865C159.331 0.524981 160.071 0.434095 161.61 0.332361C163.828 0.317234 165.248 0.312956 166.668 0.308678C168.531 0.759472 170.395 1.21027 172.645 1.90492C173.031 2.14877 173.207 2.17536 173.207 2.17536C174.293 3.03946 175.379 3.90357 176.626 5.28874C176.938 6.03898 177.125 6.23242 177.349 6.39011C177.349 6.39011 177.526 6.33082 177.639 6.56658C177.881 6.99153 178.041 7.14933 178.232 7.27573C178.626 8.11639 179.02 8.95705 179.496 10.5423C179.923 13.8034 180.269 16.3199 180.615 18.8365C180.587 19.4343 180.558 20.032 180.212 21.2283C179.787 22.2696 179.68 22.7125 179.573 23.1554C179.465 23.4541 179.357 23.7528 178.966 24.3967C178.682 24.7419 178.65 24.6437 178.65 24.6437C178.65 24.6437 178.602 25.0275 178.225 25.242C178.125 26.0727 178.403 26.6889 178.681 27.3052C178.85 27.3467 179.02 27.3883 179.575 27.6727C180.171 28.087 180.403 28.2196 180.657 28.3134C181.193 28.4431 181.729 28.5729 182.648 28.9902C183.031 29.2778 183.275 29.3741 183.275 29.3741C183.856 29.6926 184.437 30.0111 185.344 30.8239C187.432 33.2319 189.194 35.1456 190.955 37.0594C190.955 37.0594 190.85 37.0711 190.874 37.337C191.386 38.18 191.874 38.7572 192.362 39.3343C192.448 39.7841 192.535 40.2339 192.608 41.2552C192.594 41.8267 192.576 42.2758 192.24 42.2211C190.807 41.8828 189.71 41.5993 188.442 41.041C187.054 39.9536 185.836 39.1411 184.296 38.127C183.419 37.4119 182.865 36.8983 182.313 36.4113C182.316 36.4379 182.397 36.4008 182.035 36.2252C177.191 32.1839 171.84 33.1116 166.443 33.4008C166.038 33.5985 165.838 33.7553 165.339 34.1197C164.372 34.6301 163.731 34.9675 163.038 35.343C162.987 35.381 162.804 35.555 162.554 35.8437C160.883 37.565 159.462 38.9977 157.946 40.5199C157.736 40.7421 157.644 40.8893 157.496 41.4433C156.864 44.7812 156.312 47.7267 155.759 50.8268C155.793 51.2668 155.868 51.5426 156.238 51.5339C157.579 50.2908 158.668 49.3226 159.928 48.2311C160.318 47.9244 160.502 47.7116 160.819 47.1226C161.462 46.1738 161.939 45.5717 162.409 45.0059C162.403 45.0423 162.276 45.095 162.598 44.8572C164.619 43.9651 166.319 43.3108 168.019 42.6565C168.477 43.8861 168.935 45.1158 169.258 46.4787C168.984 46.9532 168.845 47.2945 168.413 47.8632C167.493 48.8489 166.866 49.6072 166.103 50.458C165.798 50.6965 165.663 50.8688 165.544 51.1751C165.527 51.2828 165.309 51.2628 165.161 51.3766C164.828 51.6608 164.677 51.8578 164.561 52.1737C164.561 52.2662 164.376 52.266 164.217 52.3721C163.856 52.6407 163.691 52.834 163.57 53.1567C163.579 53.2553 163.382 53.2722 163.224 53.392C162.868 53.6914 162.708 53.9003 162.504 54.4716C161.669 55.6639 160.916 56.5232 160.052 57.4488C159.801 57.6201 159.678 57.7417 159.496 58.0461C159.422 58.2124 159.069 58.305 158.981 58.4006C158.776 58.6254 158.67 58.7628 158.537 59.0556C158.499 59.2028 158.208 59.2934 158.105 59.3748C157.872 59.5764 157.77 59.7174 157.521 60.1737C156.108 61.7562 154.873 63.0442 153.321 64.3983C152.204 65.592 151.404 66.7196 150.334 68.0556C149.493 68.603 148.921 68.9417 148.223 69.3506C147.932 69.5289 147.798 69.6663 147.435 70.0235C146.435 70.6223 145.694 71.0301 144.708 71.5095C144.176 71.7621 143.889 71.9432 143.613 72.2191C143.622 72.3141 143.433 72.3333 143.295 72.4091C142.983 72.604 142.839 72.7537 142.399 73.1009C141.085 73.9907 140.098 74.7136 138.965 75.4094C138.819 75.3823 138.525 75.4192 138.285 75.5924C137.743 76.0157 137.441 76.2658 137.082 76.5228C137.024 76.5295 136.915 76.7144 136.614 76.9307C136.073 77.2045 135.833 77.2621 135.401 77.4282C134.964 77.7037 134.751 77.9038 134.561 78.2108C134.553 78.2844 134.406 78.267 134.242 78.3754C133.87 78.6497 133.698 78.8467 133.561 79.1735C133.56 79.2722 133.363 79.2696 133.208 79.402C132.86 79.7312 132.708 79.9552 132.542 80.6342C132.518 81.9109 132.548 82.7599 132.678 83.7609C132.933 84.104 133.115 84.2625 133.441 84.4013C133.556 84.4142 133.575 84.6441 133.786 84.7919C134.488 85.0778 134.978 85.2159 135.808 85.3966C136.976 85.1464 137.806 84.8535 138.635 84.5606ZM157.476 24.5226C157.476 24.5226 157.606 24.8908 157.842 25.0796C158.003 25.202 158.176 25.3059 158.511 25.338C158.511 25.338 158.563 25.4897 158.889 26.1132C160.459 26.5178 162.03 26.9224 164.358 27.3942C168.726 26.4058 172.385 24.4446 174.494 19.7288C174.55 19.2997 174.605 18.8706 174.764 17.6532C174.717 16.8643 174.671 16.0755 174.502 14.9621C174.402 14.7508 174.266 14.565 173.973 13.6756C173.523 12.5398 173.074 11.4039 172.42 9.90214C172.264 9.66721 172.077 9.46082 171.631 9.18819C171.631 9.18819 171.687 8.9483 171.428 8.68224C171.242 8.51483 171.033 8.38401 170.146 8.14472C169.618 7.73401 169.091 7.32331 168.319 6.65474C168.135 6.49923 167.929 6.38287 166.776 6.24042C164.922 6.3077 163.067 6.37498 161.131 6.42144C161.131 6.42144 161.035 6.55604 160.214 6.98397C159.918 7.07168 159.622 7.1594 158.842 7.35232C158.419 7.60015 157.996 7.84798 157.56 8.2803C157.56 8.2803 157.376 8.26574 157.056 8.49723C156.856 8.67263 156.692 8.87717 156.566 9.25501C156.566 9.25501 156.422 9.25328 156.081 9.32255C155.913 9.65314 155.745 9.98373 155.449 10.9289C155.318 11.0919 155.187 11.2549 154.861 11.5984C154.743 11.7318 154.646 11.8797 154.525 12.7168C154.458 12.932 154.391 13.1473 154.01 13.973C154.12 15.7455 154.23 17.5179 154.519 19.9832C155.204 21.1948 155.889 22.4065 156.725 23.8889C156.839 24.0621 156.97 24.2215 157.476 24.5226ZM74.8035 68.1185C74.8035 68.1185 74.9003 68.1855 75.3182 68.3135C75.3182 68.3135 75.5785 68.6646 75.8309 68.959C76.0235 69.1381 76.244 69.2708 77.2571 69.498C80.7324 69.7777 84.2078 70.0574 88.014 70.2083C88.2286 70.0995 88.4108 69.9509 89.2433 69.5295C89.4779 69.4765 89.7124 69.4234 90.2418 69.1594C90.425 68.9962 90.5674 68.8029 90.6721 68.3766C90.6721 68.3766 90.8742 68.3578 91.1454 68.2153C91.3186 68.0988 91.4525 67.9476 91.9216 67.1741C92.5689 66.2181 93.2162 65.2621 94.1786 63.8664C94.3226 63.3513 94.4667 62.8361 94.6202 61.4748C95.3714 54.954 92.3256 50.6805 86.4201 47.4954C84.9126 47.5084 83.4052 47.5214 81.0648 47.8923C80.4827 48.055 79.9006 48.2176 78.8997 48.3588C78.5128 48.5141 78.126 48.6694 77.1409 49.2772C75.7158 50.6864 74.2907 52.0956 72.7402 53.6823C72.7402 53.6823 72.5763 54.0844 72.3589 54.8369C72.2116 55.0525 72.0642 55.268 71.7679 55.6815C71.7679 55.6815 71.5839 56.1412 71.578 57.0485C71.9816 59.6512 72.3853 62.2539 72.7589 64.9391C72.7589 64.9391 72.8937 65.0352 73.3523 65.7171C73.4306 65.9796 73.5088 66.2421 73.748 66.8376C73.8796 67.0505 74.0494 67.2265 74.6288 67.632C74.6288 67.632 74.7773 68.0641 74.8035 68.1185Z" fill="#475569"/>
<path d="M190.616 155.22C190.754 153.478 190.892 151.737 191.472 149.702C192.106 149.402 192.297 149.394 192.964 149.398C196.974 149.344 200.507 149.278 204.15 149.208C204.259 149.203 204.406 148.93 204.406 148.93C204.406 148.93 204.237 148.705 204.064 148.254C203.802 147.493 203.713 147.184 203.558 146.72C203.336 146.384 203.138 146.29 202.806 146.274C202.713 146.265 202.688 146.08 202.652 145.962C202.616 145.844 202.325 145.449 202.101 145.098C201.432 144.047 200.988 143.347 200.558 142.618C200.573 142.59 200.467 142.54 200.165 142.301C199.471 141.399 199.08 140.736 198.645 139.815C198.303 139.139 198.004 138.722 197.414 138.17C196.629 137.108 196.136 136.18 195.557 135.057C195.325 134.61 195.126 134.412 194.769 134.23C194.663 134.195 194.698 133.975 194.645 133.846C194.501 133.551 194.38 133.412 194.013 133.221C193.796 133.144 193.554 132.753 193.575 132.543C193.371 131.976 193.147 131.619 192.819 131.258C192.714 131.253 192.694 131.045 192.626 130.905C192.443 130.585 192.286 130.452 191.922 130.089C191.724 129.596 191.693 129.382 191.581 128.98C191.351 128.558 191.15 128.38 190.804 128.259C190.709 128.258 190.712 128.069 190.759 127.882C190.806 127.696 190.903 127.324 191.139 127.136C192.682 126.039 193.991 125.13 195.487 124.257C195.674 124.294 196.056 124.297 196.056 124.297C196.489 125.116 196.923 125.935 197.585 127.274C197.968 128.042 198.172 128.241 198.427 128.387C198.427 128.387 198.586 128.415 198.634 128.64C198.792 129.051 198.946 129.191 199.143 129.283C200.214 130.791 201.286 132.3 202.571 134.319C202.947 135.063 203.158 135.237 203.418 135.352C203.418 135.352 203.653 135.41 203.668 135.612C203.683 135.814 203.942 135.998 203.942 135.998C204.753 137.31 205.564 138.622 206.555 140.453C206.871 141.153 207.039 141.295 207.24 141.399C207.24 141.399 207.502 141.443 207.6 141.694C207.814 142.101 207.963 142.213 208.145 142.281C210.547 144.918 210.938 150.007 216.987 149.202C216.987 142.449 216.987 135.876 216.987 128.991C218.86 128.817 220.118 128.601 221.376 128.597C235.014 128.56 248.655 128.451 262.289 128.673C264.068 128.702 267.153 130.28 267.335 131.486C267.922 135.389 264.437 134.636 262.141 134.654C251.001 134.742 239.859 134.703 228.717 134.708C227.096 134.709 225.475 134.708 223.164 134.708C223.164 140.282 223.297 145.387 223.086 150.477C223.02 152.07 222.027 153.626 220.611 155.276C210.048 155.309 200.332 155.264 190.616 155.22Z" fill="#475569"/>
<path d="M94.556 102.522C96.096 104.936 97.636 107.35 99.3441 110.508C99.4341 117.603 99.3559 123.955 99.0625 130.385C98.9915 131.091 99.1357 131.719 99.3601 132.813C99.473 135.171 99.5057 137.065 99.5395 139.252C99.5795 140.136 99.6183 140.726 99.6572 141.316C98.4068 141.691 97.1564 142.067 95.5248 142.791C95.1435 143.139 94.7293 143.291 94.2565 143.284C89.0677 143.226 84.3517 143.175 79.5052 142.847C78.1199 142.756 76.865 142.941 75.2414 143.195C74.1268 143.218 73.381 143.174 72.5545 142.908C71.8526 142.833 71.2315 142.978 70.1613 143.19C67.9116 143.26 65.9911 142.879 64.3491 143.391C63.0875 143.785 62.1768 145.303 61.1101 146.321C59.2327 147.633 57.3554 148.944 55.1502 150.288C54.7771 147.29 54.732 144.261 54.759 140.782C56.9729 139.277 59.1146 138.221 61.8868 136.868C72.4406 136.57 82.364 136.57 92.506 136.57C92.6905 134.893 92.8309 133.617 93.0941 132.237C93.3599 131.793 93.2784 131.52 92.9006 130.891C92.8762 128.759 92.9235 127.05 93.0937 125.238C93.3599 124.792 93.2779 124.518 92.9002 123.942C92.8769 122.825 92.924 122.077 93.1567 121.004C93.2091 118.242 93.0759 115.806 92.8534 113.032C92.8139 112.231 92.8638 111.769 93.0961 111.098C93.1647 110.035 93.0509 109.182 92.7962 108.036C92.3028 107.497 91.9501 107.249 91.4301 106.833C90.8187 106.514 90.3747 106.365 89.8302 106.236C89.7297 106.258 89.6799 106.059 89.5369 105.774C88.6388 100.194 91.8795 101.849 94.556 102.522Z" fill="#475569"/>
<path d="M195.299 124.221C193.991 125.13 192.682 126.039 190.991 127.094C190.608 127.239 190.306 127.261 190.11 126.991C189.836 126.513 189.758 126.304 189.663 125.953C189.581 125.616 189.457 125.477 189.064 125.059C188.771 123.944 188.683 123.165 188.575 122.107C188.321 121.331 188.09 120.832 187.806 119.867C187.649 110.878 187.544 102.356 187.449 93.7595C187.459 93.6845 187.214 93.58 186.823 93.4322C186.171 93.1846 185.91 93.0846 185.533 92.7213C183.48 92.6936 181.545 92.9293 179.212 93.2087C177.754 93.2188 176.693 93.1852 175.631 93.1516C174.661 91.5063 173.692 89.861 173.122 87.841C174.893 87.4155 176.265 87.3645 178.097 87.3304C181.47 87.3473 184.384 87.3473 187.913 87.3473C187.913 80.4005 187.913 73.8652 188.267 67.27C191.843 64.5614 191.826 62.2435 187.837 59.8659C187.81 55.3828 187.865 51.3566 188.27 47.3033C190.235 46.9612 191.848 46.6461 193.462 46.331C193.524 48.6847 193.586 51.0383 193.472 54.136C193.454 57.0485 193.613 59.217 193.772 61.3855C193.734 62.4203 193.697 63.4551 193.477 65.1859C192.538 70.1875 191.585 74.474 191.162 78.8122C191.056 79.9 192.652 81.1539 193.466 82.3314C193.509 82.7744 193.551 83.2173 193.201 84.1082C189.692 87.4225 190.534 89.9664 193.443 92.342C193.729 98.409 194.014 104.476 194.116 111.257C194.043 114.083 194.153 116.194 194.264 118.305C194.347 119.068 194.43 119.831 194.571 121.251C194.879 122.382 195.13 122.855 195.38 123.328C195.38 123.328 195.593 123.385 195.51 123.642C195.426 123.899 195.299 124.221 195.299 124.221Z" fill="#475569"/>
<path d="M193.539 81.9003C192.652 81.1539 191.056 79.9 191.162 78.8122C191.585 74.474 192.538 70.1875 193.53 65.5712C193.715 70.6634 193.664 76.0663 193.539 81.9003Z" fill="#475569"/>
<path d="M190.223 155.248C200.332 155.264 210.048 155.309 220.24 155.364C219.188 155.678 217.664 156.235 216.137 156.245C205.945 156.316 195.752 156.27 185.097 156.2C186.367 155.851 188.099 155.564 190.223 155.248Z" fill="#475569"/>
<path d="M193.531 45.9317C191.848 46.6461 190.235 46.9612 188.188 46.9344C187.707 45.8385 187.66 45.0843 187.814 44.0752C188.214 42.9854 188.413 42.1506 188.612 41.3158C189.71 41.5993 190.807 41.8828 192.381 42.259C192.859 42.3516 193.149 42.3566 193.149 42.3566C193.299 43.4152 193.45 44.4738 193.531 45.9317Z" fill="#475569"/>
<path d="M193.506 91.8995C190.534 89.9664 189.692 87.4225 193.117 84.433C193.473 86.6923 193.521 89.0747 193.506 91.8995Z" fill="#475569"/>
<path d="M136.337 69.4814C137.132 73.722 134.507 73.842 131.079 73.3599C132.481 72.073 134.239 70.7872 136.337 69.4814Z" fill="#475569"/>
<path d="M190.86 36.7346C189.194 35.1456 187.432 33.2319 185.643 30.973C187.332 32.5552 189.049 34.4825 190.86 36.7346Z" fill="#475569"/>
<path d="M147.451 61.8084C147.312 65.3933 144.559 66.0657 141.14 66.3685C142.899 64.9107 145.033 63.4415 147.451 61.8084Z" fill="#475569"/>
<path d="M194.104 61.1744C193.613 59.217 193.454 57.0485 193.523 54.574C193.98 56.4999 194.207 58.7316 194.104 61.1744Z" fill="#475569"/>
<path d="M54.7464 134.703C55.9093 134.797 57.0014 135.261 58.0936 135.725C57.2344 136.251 56.3752 136.777 55.1679 137.311C54.7718 136.571 54.7238 135.822 54.7464 134.703Z" fill="#475569"/>
<path d="M180.75 18.5412C180.269 16.3199 179.923 13.8034 179.576 10.8836C180.011 13.0689 180.448 15.6573 180.75 18.5412Z" fill="#475569"/>
<path d="M54.7706 165.773C55.0099 167.193 55.172 169.031 55.0878 171.077C54.7921 169.588 54.7427 167.89 54.7706 165.773Z" fill="#475569"/>
<path d="M156.474 32.8876C155.941 33.9421 155.125 35.1037 153.969 36.2968C154.482 35.2171 155.336 34.1059 156.474 32.8876Z" fill="#475569"/>
<path d="M179.961 177.112C179.643 174.636 179.635 171.904 179.643 168.716C179.863 171.126 180.067 173.992 179.961 177.112Z" fill="#475569"/>
<path d="M100.866 62.9589C100.579 60.9295 100.571 58.6532 100.57 55.9526C100.766 57.9229 100.956 60.3175 100.866 62.9589Z" fill="#475569"/>
<path d="M65.0224 60.7659C65.6318 62.1379 66.1379 63.8562 66.6416 65.9267C66.0659 64.5566 65.4924 62.8344 65.0224 60.7659Z" fill="#475569"/>
<path d="M164.086 180.113C166.061 179.827 168.457 179.581 171.278 179.35C169.304 179.628 166.906 179.89 164.086 180.113Z" fill="#475569"/>
<path d="M151.324 40.4766C151.221 41.4818 150.821 42.6382 150.252 44.0069C150.397 43.022 150.713 41.8249 151.324 40.4766Z" fill="#475569"/>
<path d="M194.358 117.881C194.153 116.194 194.043 114.083 194.14 111.68C194.382 113.411 194.417 115.433 194.358 117.881Z" fill="#475569"/>
<path d="M94.6398 208.646C96.2625 208.462 98.305 208.404 100.768 208.365C99.1461 208.514 97.1029 208.643 94.6398 208.646Z" fill="#475569"/>
<path d="M129.303 74.3492C128.589 75.007 127.557 75.6896 126.18 76.3896C126.885 75.7293 127.934 75.0517 129.303 74.3492Z" fill="#475569"/>
<path d="M125.35 76.4685C124.617 77.0986 123.563 77.735 122.171 78.3866C122.898 77.7594 123.964 77.1171 125.35 76.4685Z" fill="#475569"/>
<path d="M147.06 180.108C148.411 179.829 150.158 179.58 152.299 179.346C150.948 179.62 149.203 179.88 147.06 180.108Z" fill="#475569"/>
<path d="M151.028 26.5104C151.817 26.9973 152.692 27.7726 153.597 28.8722C152.789 28.3971 151.952 27.5979 151.028 26.5104Z" fill="#475569"/>
<path d="M71.4124 45.61C70.9549 46.4469 70.2114 47.3731 69.1417 48.3401C69.5857 47.4871 70.3561 46.5932 71.4124 45.61Z" fill="#475569"/>
<path d="M166.448 0.0270855C165.248 0.312956 163.828 0.317234 161.983 0.309224C163.114 0.11312 164.671 -0.0706935 166.448 0.0270855Z" fill="#475569"/>
<path d="M55.5149 89.6009C55.6044 90.2053 55.5373 91.0668 55.2757 92.0894C55.1737 91.4531 55.266 90.6556 55.5149 89.6009Z" fill="#475569"/>
<path d="M131.047 208.881C131.982 208.675 133.258 208.476 134.855 208.318C133.914 208.536 132.651 208.712 131.047 208.881Z" fill="#475569"/>
<path d="M54.7404 104.393C54.9758 104.778 55.1413 105.433 55.0655 106.204C54.773 105.767 54.7218 105.215 54.7404 104.393Z" fill="#475569"/>
<path d="M102.395 208.554C103.424 208.372 104.794 208.357 106.679 208.364C105.708 208.498 104.222 208.609 102.395 208.554Z" fill="#475569"/>
<path d="M192.37 39.0367C191.874 38.7572 191.386 38.18 190.91 37.298C191.407 37.575 191.893 38.157 192.37 39.0367Z" fill="#475569"/>
<path d="M178.625 26.9597C178.403 26.6889 178.125 26.0727 178.065 25.3511C178.379 25.702 178.475 26.1581 178.625 26.9597Z" fill="#475569"/>
<path d="M136.179 182.854C136.035 182.385 136.005 181.569 136.112 180.54C136.264 181.053 136.278 181.781 136.179 182.854Z" fill="#475569"/>
<path d="M54.7277 155.704C55.0211 155.521 55.2167 155.73 55.5041 156.395C55.6213 156.995 55.6212 157.163 55.6211 157.331C55.4795 157.579 55.3112 157.807 54.9606 158.161C54.7551 157.562 54.7052 156.817 54.7277 155.704Z" fill="#475569"/>
<path d="M56.4534 86.6033C56.5255 86.9236 56.3883 87.4001 56.098 88.0746C56.0446 87.7682 56.1443 87.2638 56.4534 86.6033Z" fill="#475569"/>
<path d="M112.417 83.5152C112.26 83.7328 111.862 84.0116 111.226 84.3545C111.384 84.1379 111.78 83.8572 112.417 83.5152Z" fill="#475569"/>
<path d="M98.1609 84.2314C97.8873 84.2648 97.4665 84.1204 96.8703 83.8364C97.1345 83.8156 97.5741 83.9346 98.1609 84.2314Z" fill="#475569"/>
<path d="M195.384 123.032C195.13 122.855 194.879 122.382 194.626 121.632C194.879 121.815 195.134 122.276 195.384 123.032Z" fill="#475569"/>
<path d="M147.941 20.6356C148.204 20.8187 148.403 21.2574 148.633 21.9373C148.402 21.7494 148.139 21.3203 147.941 20.6356Z" fill="#475569"/>
<path d="M179.777 23.0201C179.68 22.7125 179.787 22.2696 180.017 21.6332C180.086 21.9215 180.033 22.4032 179.777 23.0201Z" fill="#475569"/>
<path d="M54.7653 112.58C54.9354 112.635 55.0453 112.937 54.9915 113.279C54.787 113.155 54.7461 112.991 54.7653 112.58Z" fill="#475569"/>
<path d="M54.7703 108.58C54.9382 108.635 55.0471 108.937 54.9926 109.279C54.7899 109.155 54.7505 108.991 54.7703 108.58Z" fill="#475569"/>
<path d="M67.5675 50.1921C67.6845 50.4144 67.6093 50.6604 67.4173 51.0014C67.2272 50.8074 67.2521 50.5139 67.5675 50.1921Z" fill="#475569"/>
<path d="M149.647 24.597C149.94 24.7191 150.253 25.1122 150.65 25.7456C150.378 25.6133 150.023 25.2406 149.647 24.597Z" fill="#475569"/>
<path d="M92.0156 74.6944C92.0912 74.4976 92.3548 74.3766 92.7967 74.3035C92.8107 74.605 92.5535 74.7445 92.0156 74.6944Z" fill="#475569"/>
<path d="M70.5949 72.578C70.6863 72.6402 70.7856 72.9405 70.6995 73.2625C70.514 73.2841 70.6028 72.816 70.5949 72.578Z" fill="#475569"/>
<path d="M135.741 207.902C135.608 207.592 135.701 207.205 135.901 206.651C135.995 206.93 135.982 207.377 135.741 207.902Z" fill="#475569"/>
<path d="M65.4343 55.5987C65.5681 55.9232 65.4692 56.3694 65.2517 57.0124C65.1559 56.7129 65.1787 56.2166 65.4343 55.5987Z" fill="#475569"/>
<path d="M203.37 135.137C203.158 135.237 202.947 135.063 202.69 134.645C202.913 134.495 203.155 134.648 203.37 135.137Z" fill="#475569"/>
<path d="M204.029 135.906C203.942 135.998 203.683 135.814 203.689 135.731C203.891 135.564 204.031 135.62 204.029 135.906Z" fill="#475569"/>
<path d="M148.446 11.4579C148.573 11.6068 148.468 11.8142 148.201 12.1271C147.895 11.9549 147.953 11.7163 148.446 11.4579Z" fill="#475569"/>
<path d="M207.224 141.209C207.039 141.295 206.871 141.153 206.654 140.829C206.859 140.652 207.072 140.763 207.224 141.209Z" fill="#475569"/>
<path d="M208.15 142.108C207.963 142.213 207.814 142.101 207.628 141.824C207.819 141.619 208.019 141.697 208.15 142.108Z" fill="#475569"/>
<path d="M158.351 0.575032C158.394 0.819749 158.172 0.989855 157.73 1.2105C157.627 0.964692 157.819 0.71115 158.351 0.575032Z" fill="#475569"/>
<path d="M75.4332 234.249C75.6287 234.117 75.6988 234.507 75.6898 234.705C75.5086 234.964 75.3363 235.026 74.8898 235.082C74.7687 234.796 74.9761 234.564 75.4332 234.249Z" fill="#475569"/>
<path d="M113.266 208.581C113.378 208.417 113.685 208.442 114.207 208.573C114.425 208.642 113.956 208.801 113.956 208.801C113.956 208.801 113.465 208.733 113.266 208.581Z" fill="#475569"/>
<path d="M198.403 128.153C198.172 128.241 197.968 128.042 197.723 127.598C197.971 127.445 198.22 127.618 198.403 128.153Z" fill="#475569"/>
<path d="M199.151 129.101C198.946 129.191 198.792 129.051 198.619 128.719C198.832 128.558 199.033 128.672 199.151 129.101Z" fill="#475569"/>
<path d="M155.322 1.9331C155.38 2.02221 155.324 2.13102 155.293 2.12507C155.262 2.11913 155.263 1.84399 155.322 1.9331Z" fill="#475569"/>
<path d="M173.236 2.07936C173.207 2.17536 173.031 2.14877 173.018 2.10076C173.005 2.05275 173.266 1.98336 173.236 2.07936Z" fill="#475569"/>
<path d="M150.546 6.97296C150.585 7.03745 150.525 7.03035 150.547 7.0281C150.569 7.02585 150.507 6.90846 150.546 6.97296Z" fill="#475569"/>
<path d="M55.6407 163.318C55.6407 163.318 55.2319 163.326 55.0275 163.329C54.7749 163.164 54.7266 162.997 54.7416 162.575C54.8049 162.322 55.2121 162.325 55.4202 162.574C55.6283 162.822 55.6407 163.318 55.6407 163.318Z" fill="#475569"/>
<path d="M178.291 7.05987C178.041 7.14933 177.881 6.99153 177.668 6.65529C177.925 6.42589 178.18 6.53781 178.291 7.05987Z" fill="#475569"/>
<path d="M151.206 6.23111C151.201 6.16362 151.331 6.19243 151.363 6.17846C151.395 6.16449 151.212 6.29859 151.206 6.23111Z" fill="#475569"/>
<path d="M136.833 179.995C136.777 179.783 136.97 179.617 137.371 179.41C137.488 179.635 137.322 179.859 136.833 179.995Z" fill="#475569"/>
<path d="M153.536 3.70511C153.654 3.70004 153.51 3.9816 153.462 4.04258C153.415 4.10356 153.418 3.71019 153.536 3.70511Z" fill="#475569"/>
<path d="M178.866 179.038C178.758 178.81 178.893 178.652 179.199 178.444C179.482 178.687 179.395 178.925 178.866 179.038Z" fill="#475569"/>
<path d="M177.271 6.19958C177.125 6.23242 176.938 6.03898 176.694 5.63004C176.848 5.58342 177.046 5.76968 177.271 6.19958Z" fill="#475569"/>
<path d="M149.532 8.61102C149.658 8.56732 149.463 8.9711 149.393 9.05626C149.218 8.95697 149.245 8.79473 149.532 8.61102Z" fill="#475569"/>
<path d="M86.3589 41.6297C86.5903 41.6792 86.2366 41.8529 86.2366 41.8529C86.2366 41.8529 85.8543 41.7851 85.7547 41.6952C85.655 41.6053 86.1275 41.5802 86.3589 41.6297Z" fill="#475569"/>
<path d="M138.213 67.8895C138.284 67.9579 138.172 68.143 138.117 68.1374C138.061 68.1317 138.141 67.8211 138.213 67.8895Z" fill="#475569"/>
<path d="M67.0636 68.5491C67.2316 68.4542 67.3757 68.5607 67.5651 68.8165C67.6374 68.9293 67.3083 68.9376 67.3083 68.9376C67.3083 68.9376 67.0666 68.7143 67.0636 68.5491Z" fill="#475569"/>
<path d="M137.46 68.6741C137.518 68.8286 137.354 69.0159 136.998 69.2754C136.9 69.107 137.044 68.8933 137.46 68.6741Z" fill="#475569"/>
<path d="M193.158 42.1538C193.149 42.3566 192.859 42.3516 192.717 42.3137C192.576 42.2758 192.594 41.8267 192.603 41.6024C192.869 41.4988 193.055 41.6898 193.158 42.1538Z" fill="#475569"/>
<path d="M94.8784 73.0193C94.8016 72.8 94.9783 72.6229 95.3588 72.3948C95.5126 72.6246 95.3691 72.8638 94.8784 73.0193Z" fill="#475569"/>
<path d="M68.3708 73.8748C68.431 74.0449 68.3106 74.1641 68.0584 74.3265C67.898 74.1428 67.9859 73.9609 68.3708 73.8748Z" fill="#475569"/>
<path d="M67.4276 74.532C67.4754 74.7601 67.2408 74.954 66.7688 75.2094C66.7666 75.0501 66.9712 74.7924 67.4276 74.532Z" fill="#475569"/>
<path d="M121.44 78.5617C121.491 78.7516 121.282 78.9505 120.852 79.223C120.749 79.0147 120.932 78.7727 121.44 78.5617Z" fill="#475569"/>
<path d="M60.3943 79.7634C60.4785 79.9426 60.3439 80.1009 60.0324 80.3024C59.8748 80.1111 59.9815 79.91 60.3943 79.7634Z" fill="#475569"/>
<path d="M152.392 37.7089C152.488 37.7464 152.449 37.9128 152.403 37.9248C152.358 37.9369 152.296 37.6714 152.392 37.7089Z" fill="#475569"/>
<path d="M59.5109 80.6326C59.599 80.7941 59.4755 80.9621 59.1817 81.1864C59.0066 81.0031 59.1026 80.802 59.5109 80.6326Z" fill="#475569"/>
<path d="M117.391 80.7369C117.446 80.9133 117.276 81.0748 116.915 81.2784C116.813 81.0888 116.962 80.8893 117.391 80.7369Z" fill="#475569"/>
<path d="M148.405 60.4506C148.512 60.6314 148.356 60.8681 148.01 61.2283C147.756 61.015 147.864 60.7333 148.405 60.4506Z" fill="#475569"/>
<path d="M66.3922 52.4018C66.5204 52.5751 66.3886 52.7994 66.0744 53.1352C65.7534 52.9278 65.8335 52.6632 66.3922 52.4018Z" fill="#475569"/>
<path d="M100.242 53.0622C99.9974 53.115 99.8485 52.9263 99.6788 52.5344C99.9246 52.4137 100.151 52.5768 100.242 53.0622Z" fill="#475569"/>
<path d="M97.3343 48.1713C97.159 48.2551 96.9568 48.0968 96.6813 47.734C96.8763 47.5855 97.1093 47.7187 97.3343 48.1713Z" fill="#475569"/>
<path d="M96.3204 47.186C96.145 47.2654 95.945 47.1027 95.6758 46.7329C95.8706 46.594 96.1004 46.7335 96.3204 47.186Z" fill="#475569"/>
<path d="M95.3473 46.1771C95.1649 46.2574 94.9634 46.0894 94.6908 45.7126C94.8952 45.5636 95.1314 45.7053 95.3473 46.1771Z" fill="#475569"/>
<path d="M99.8179 66.2237C99.6771 66.0694 99.7804 65.8515 100.056 65.5246C100.389 65.7003 100.334 65.9486 99.8179 66.2237Z" fill="#475569"/>
<path d="M72.3303 44.985C72.4672 45.0439 72.093 45.3035 71.9862 45.3454C71.8646 45.152 71.9692 44.9983 72.3303 44.985Z" fill="#475569"/>
<path d="M75.2964 42.7097C75.3726 42.952 75.2269 43.09 74.9021 43.2433C74.741 43.0073 74.8582 42.7895 75.2964 42.7097Z" fill="#475569"/>
<path d="M140.455 66.5603C140.512 66.7399 140.314 66.9447 139.899 67.2276C139.79 67.0267 139.963 66.7867 140.455 66.5603Z" fill="#475569"/>
<path d="M149.021 23.5839C149.229 23.5469 149.379 23.7456 149.557 24.1474C149.348 24.2258 149.139 24.0488 149.021 23.5839Z" fill="#475569"/>
<path d="M195.487 124.257C195.299 124.221 195.426 123.899 195.517 123.752C195.893 123.567 196.08 123.684 196.113 124.127C196.056 124.297 195.674 124.294 195.487 124.257Z" fill="#475569"/>
<path d="M58.3908 82.3974C58.5269 82.5578 58.4102 82.7845 58.116 83.1271C57.7814 82.9375 57.848 82.6778 58.3908 82.3974Z" fill="#475569"/>
<path d="M113.356 82.6332C113.433 82.8739 113.258 83.0409 112.896 83.2654C112.705 83.0136 112.837 82.7592 113.356 82.6332Z" fill="#475569"/>
<path d="M101.568 86.1077C101.417 86.2275 101.182 86.1043 100.82 85.8074C101.008 85.5024 101.272 85.5795 101.568 86.1077Z" fill="#475569"/>
<path d="M108.374 85.7935C108.428 85.9861 108.267 86.1278 107.924 86.2953C107.815 86.0947 107.954 85.9019 108.374 85.7935Z" fill="#475569"/>
<path d="M156.909 31.5722C157.093 31.5189 157.191 31.7658 157.102 32.1928C157.019 32.1553 156.988 31.9885 156.909 31.5722Z" fill="#475569"/>
<path d="M155.033 30.5175C155.043 30.387 155.319 30.5083 155.369 30.5618C155.42 30.6153 155.235 30.7982 155.235 30.7982C155.235 30.7982 155.023 30.6481 155.033 30.5175Z" fill="#475569"/>
<path d="M183.264 29.2664C183.275 29.3741 183.031 29.2778 182.973 29.2479C182.915 29.2179 183.254 29.1586 183.264 29.2664Z" fill="#475569"/>
<path d="M54.7132 93.5802C54.9918 93.5423 55.0611 93.7897 54.8995 94.19C54.7669 94.1446 54.712 93.9855 54.7132 93.5802Z" fill="#475569"/>
<path d="M180.565 28.0993C180.403 28.2196 180.171 28.087 179.815 27.7772C180.016 27.4656 180.284 27.5478 180.565 28.0993Z" fill="#475569"/>
<path d="M178.662 24.6957C178.65 24.6437 178.682 24.7419 178.664 24.7651C178.645 24.7883 178.674 24.7476 178.662 24.6957Z" fill="#475569"/>
<path d="M54.7438 97.574C54.8023 97.32 55.2121 97.3256 55.4181 97.5757C55.6242 97.8259 55.6239 98.3221 55.6239 98.3221C55.6239 98.3221 55.2177 98.3276 55.0146 98.3306C54.7695 98.165 54.7274 97.9964 54.7438 97.574Z" fill="#475569"/>
<path d="M71.8843 228.565C76.6652 228.442 81.696 228.583 87.186 228.627C83.9429 228.902 80.2406 229.273 76.0858 229.701C74.4669 229.448 73.3005 229.139 71.8843 228.565Z" fill="#475569"/>
<path d="M67.1508 219.036C67.0478 218.183 67.15 217.055 67.4442 215.646C67.5429 216.498 67.4495 217.629 67.1508 219.036Z" fill="#475569"/>
<path d="M58.7604 191.789C58.9296 192.305 58.9919 193.081 58.8509 194.063C58.6496 193.529 58.6515 192.788 58.7604 191.789Z" fill="#475569"/>
<path d="M77.7824 193.848C77.9023 194.342 77.9528 195.098 77.8058 196.066C77.6432 195.556 77.6781 194.833 77.7824 193.848Z" fill="#475569"/>
<path d="M73.0654 219.598C73.2156 220.206 73.1816 221.066 72.8816 222.118C72.7042 221.49 72.7927 220.67 73.0654 219.598Z" fill="#475569"/>
<path d="M68.1375 213.084C68.0183 212.491 68.0988 211.663 68.4234 210.64C68.5575 211.246 68.4473 212.048 68.1375 213.084Z" fill="#475569"/>
<path d="M77.1284 198.631C77.237 199.217 77.1955 200.058 76.8768 201.055C76.7259 200.436 76.8521 199.661 77.1284 198.631Z" fill="#475569"/>
<path d="M71.1132 196.33C71.0576 195.545 71.1885 194.753 71.4918 193.714C71.6658 194.172 71.6673 194.877 71.6697 195.934C71.6707 196.286 71.2995 196.323 71.1132 196.33Z" fill="#475569"/>
<path d="M69.1828 207.026C69.0766 206.699 69.096 206.157 69.373 205.489C69.5231 205.846 69.4158 206.329 69.1828 207.026Z" fill="#475569"/>
<path d="M60.1736 186.567C60.2814 186.917 60.2325 187.489 59.9226 188.211C59.78 187.836 59.8984 187.312 60.1736 186.567Z" fill="#475569"/>
<path d="M61.0411 181.563C61.2498 181.807 61.3339 182.232 61.3908 182.985C61.2146 182.789 61.0656 182.267 61.0411 181.563Z" fill="#475569"/>
<path d="M73.7827 216.676C73.9282 216.959 73.9644 217.442 73.7942 218.08C73.6163 217.782 73.6449 217.329 73.7827 216.676Z" fill="#475569"/>
<path d="M72.1223 225.545C72.2341 225.892 72.1808 226.448 71.8746 227.149C71.7336 226.781 71.8454 226.268 72.1223 225.545Z" fill="#475569"/>
<path d="M74.7689 210.82C74.9764 210.855 75.0219 211.058 74.8309 211.413C74.6964 211.343 74.7006 211.15 74.7689 210.82Z" fill="#475569"/>
<path d="M76.1444 204.532C76.4733 204.722 76.4029 204.985 75.8561 205.269C75.73 205.113 75.8517 204.884 76.1444 204.532Z" fill="#475569"/>
<path d="M55.7157 157.218C55.6212 157.163 55.6213 156.995 55.6214 156.575C55.8697 156.547 55.9327 156.808 55.7157 157.218Z" fill="#475569"/>
<path d="M55.7312 163.205C55.6407 163.318 55.6283 162.822 55.6239 162.574C55.8676 162.543 55.9351 162.798 55.7312 163.205Z" fill="#475569"/>
<path d="M167.637 107.8C168.484 106.812 169.16 105.538 170.22 104.91C171.506 104.15 173.201 103.444 174.551 103.679C175.297 103.809 176.117 105.891 176.178 107.129C176.362 110.848 176.189 114.585 176.176 118.776C175.062 114.546 174.047 109.773 168.041 108.128C167.658 107.993 167.637 107.8 167.637 107.8Z" fill="#475569"/>
<path d="M180.217 142.442C179.151 141.747 178.423 140.933 177.613 139.488C177.228 137.682 176.926 136.508 176.623 135.333C177.243 134.219 177.863 133.104 178.548 131.676C179.839 132.668 181.064 133.973 182.47 135.888C183.339 137.429 184.028 138.36 184.717 139.291C185.306 139.862 185.895 140.433 186.663 141.45C186.975 142.084 187.137 142.242 187.329 142.369C187.667 142.841 188.005 143.313 188.423 144.078C185.854 143.688 183.206 143.005 180.217 142.442Z" fill="#475569"/>
<path d="M156.778 86.5616C163.482 86.359 170.292 86.5037 177.369 86.981C176.265 87.3645 174.893 87.4155 173.113 87.5058C168.591 87.6629 164.478 87.8588 160.365 87.8484C159.204 87.8454 158.044 87.2387 156.778 86.5616Z" fill="#475569"/>
<path d="M170.795 127.814C170.345 125.795 170.006 123.477 169.738 120.879C171.135 121.373 172.46 122.147 173.785 122.921C172.825 124.453 171.865 125.984 170.795 127.814Z" fill="#475569"/>
<path d="M166.285 62.0163C167.942 59.5671 169.986 57.1372 172.339 54.5717C172.679 58.5607 170.601 61.0265 166.285 62.0163Z" fill="#475569"/>
<path d="M93.3381 181.313C93.3765 179.182 93.742 177.022 94.3169 174.56C94.2941 176.606 98.9167 179.55 93.3381 181.313Z" fill="#475569"/>
<path d="M178.599 52.9703C180.35 55.3289 180.35 55.3289 176.927 59.7378C177.299 57.6836 177.943 55.5033 178.599 52.9703Z" fill="#475569"/>
<path d="M159.389 69.1029C160.227 67.7146 161.493 66.3552 163.061 64.82C163.651 67.3014 162.931 69.1621 159.389 69.1029Z" fill="#475569"/>
<path d="M176.285 135.325C176.926 136.508 177.228 137.682 177.522 139.225C176.405 138.333 175.296 137.074 174.054 135.531C174.596 135.27 175.272 135.294 176.285 135.325Z" fill="#475569"/>
<path d="M130.585 182.426C130.445 180.442 130.327 177.997 130.42 175.312C130.623 177.369 130.615 179.667 130.585 182.426Z" fill="#475569"/>
<path d="M155.06 133.936C154.906 131.79 154.93 129.301 155.284 126.574C155.489 128.754 155.364 131.173 155.06 133.936Z" fill="#475569"/>
<path d="M140.702 152.019C140.89 153.923 141.022 156.162 141.183 158.829C141.024 156.956 140.836 154.656 140.702 152.019Z" fill="#475569"/>
<path d="M147.163 98.2602C147.307 97.2331 147.744 96.0547 148.422 94.6744C148.26 95.6847 147.857 96.8968 147.163 98.2602Z" fill="#475569"/>
<path d="M95.6568 202.765C96.63 202.549 97.6875 202.578 99.0805 202.826C98.191 203.033 96.966 203.021 95.6568 202.765Z" fill="#475569"/>
<path d="M137.878 112.205C138.088 111.447 138.608 110.588 139.39 109.571C139.164 110.31 138.676 111.207 137.878 112.205Z" fill="#475569"/>
<path d="M99.5395 139.252C100.252 139.56 100.966 140.161 101.785 141.032C101.394 141.307 100.897 141.312 100.029 141.317C99.6183 140.726 99.5795 140.136 99.5395 139.252Z" fill="#475569"/>
<path d="M83.7188 154.637C84.4747 154.836 85.3279 155.336 86.2963 156.113C85.5463 155.906 84.6811 155.421 83.7188 154.637Z" fill="#475569"/>
<path d="M76.4911 168.998C76.2828 168.347 76.2313 167.52 76.4554 166.525C76.7032 167.178 76.6755 168 76.4911 168.998Z" fill="#475569"/>
<path d="M170.134 118.377C169.667 118.008 169.423 117.497 168.909 116.882C169.213 117.264 169.785 117.749 170.134 118.377Z" fill="#475569"/>
<path d="M97.0563 191.691C97.208 192.567 97.2125 193.741 96.9187 195.103C96.7167 194.19 96.813 193.089 97.0563 191.691Z" fill="#475569"/>
<path d="M130.596 198.38C130.463 197.411 130.354 195.929 130.403 194.103C130.581 195.128 130.6 196.498 130.596 198.38Z" fill="#475569"/>
<path d="M150.762 78.2461C150.946 77.6765 151.359 77.2611 152.036 76.7102C151.863 77.1832 151.427 77.7917 150.762 78.2461Z" fill="#475569"/>
<path d="M88.3025 227.009C88.0693 226.22 87.9845 225.179 88.0139 223.759C88.2358 224.506 88.3433 225.631 88.3025 227.009Z" fill="#475569"/>
<path d="M157.548 93.9332C157.173 94.1679 156.718 94.1749 155.919 94.1566C156.206 93.9894 156.837 93.8475 157.548 93.9332Z" fill="#475569"/>
<path d="M134.96 163.115C134.865 162.599 134.928 161.886 135.146 160.845C135.239 161.318 135.178 162.117 134.96 163.115Z" fill="#475569"/>
<path d="M150.457 88.8378C150.307 88.3895 150.226 87.7236 150.201 86.7209C150.347 87.1294 150.436 87.8749 150.457 88.8378Z" fill="#475569"/>
<path d="M91.2033 190.005C91.1184 189.471 91.1753 188.689 91.4488 187.711C91.5585 188.262 91.4518 189.01 91.2033 190.005Z" fill="#475569"/>
<path d="M75.5336 173.759C75.4223 173.296 75.3674 172.581 75.4818 171.645C75.6308 172.118 75.6104 172.812 75.5336 173.759Z" fill="#475569"/>
<path d="M135.326 118.933C135.213 118.418 135.211 117.655 135.439 116.709C135.592 117.246 135.514 117.966 135.326 118.933Z" fill="#475569"/>
<path d="M162.181 125.547C162.35 125.794 162.399 126.219 162.404 126.964C162.26 126.764 162.16 126.245 162.181 125.547Z" fill="#475569"/>
<path d="M176.612 126.774C176.799 126.955 176.998 127.361 177.183 127.998C176.987 127.818 176.806 127.409 176.612 126.774Z" fill="#475569"/>
<path d="M171.623 130.977C171.412 130.786 171.169 130.354 170.983 129.657C171.224 129.841 171.407 130.288 171.623 130.977Z" fill="#475569"/>
<path d="M146.029 100.194C146.013 99.8939 146.164 99.4086 146.523 98.7777C146.553 99.0911 146.374 99.5503 146.029 100.194Z" fill="#475569"/>
<path d="M88.3322 205.045C88.1536 204.698 88.1171 204.142 88.3472 203.456C88.5672 203.829 88.5208 204.332 88.3322 205.045Z" fill="#475569"/>
<path d="M72.4332 189.927C72.3205 189.665 72.2919 189.206 72.4609 188.603C72.6114 188.883 72.5644 189.307 72.4332 189.927Z" fill="#475569"/>
<path d="M79.1997 187.584C79.2757 187.905 79.2009 188.459 78.9219 189.213C78.8282 188.882 78.9385 188.349 79.1997 187.584Z" fill="#475569"/>
<path d="M99.6583 169.554C99.8901 169.761 100.142 170.233 100.326 170.994C100.065 170.795 99.8716 170.307 99.6583 169.554Z" fill="#475569"/>
<path d="M97.6792 188.845C97.8269 188.931 97.9562 189.197 98.0256 189.478C98.0578 189.608 97.9731 189.767 97.7593 190.044C97.597 189.794 97.6167 189.412 97.6792 188.845Z" fill="#475569"/>
<path d="M90.0354 195.104C89.9734 194.806 90.0591 194.312 90.3607 193.676C90.4455 193.991 90.3143 194.449 90.0354 195.104Z" fill="#475569"/>
<path d="M80.9407 177.666C81.0563 177.965 81.066 178.474 80.8435 179.122C80.6858 178.799 80.7603 178.337 80.9407 177.666Z" fill="#475569"/>
<path d="M88.2526 221.119C88.0482 220.855 87.978 220.426 88.0278 219.688C88.2275 219.904 88.3072 220.429 88.2526 221.119Z" fill="#475569"/>
<path d="M130.205 201.044C130.106 200.926 130.159 200.6 130.387 200.071C130.521 200.197 130.454 200.52 130.205 201.044Z" fill="#475569"/>
<path d="M92.3275 184.109C92.2295 184.218 92.0653 183.88 92.0653 183.88C92.0653 183.88 92.2942 183.582 92.4727 183.522C92.6138 183.656 92.5386 183.836 92.3275 184.109Z" fill="#475569"/>
<path d="M73.2082 184.125C72.9111 183.951 72.9694 183.721 73.4463 183.479C73.5769 183.63 73.4765 183.831 73.2082 184.125Z" fill="#475569"/>
<path d="M99.167 182.507C99.5122 182.706 99.4397 182.983 98.867 183.282C98.7314 183.115 98.8589 182.875 99.167 182.507Z" fill="#475569"/>
<path d="M103.856 143.233C103.845 143.213 104.1 143.181 104.018 143.247C103.936 143.314 103.867 143.253 103.856 143.233Z" fill="#475569"/>
<path d="M78.1153 158.15C77.8322 157.963 77.9119 157.703 78.4151 157.412C78.5398 157.569 78.4196 157.801 78.1153 158.15Z" fill="#475569"/>
<path d="M79.1517 154.238C78.9784 154.058 79.0504 153.899 79.4074 153.842C79.5464 153.877 79.2509 154.192 79.1517 154.238Z" fill="#475569"/>
<path d="M81.7074 173.224C81.866 173.168 81.9884 173.373 82.048 173.594C82.0729 173.687 81.9643 173.815 81.7439 173.981C81.5963 173.854 81.621 173.672 81.7074 173.224Z" fill="#475569"/>
<path d="M116.945 155.112C116.98 155.12 116.733 155.086 116.797 155.031C116.861 154.977 116.909 155.103 116.945 155.112Z" fill="#475569"/>
<path d="M154.854 173.195C154.723 172.992 154.893 172.725 155.396 172.428C155.472 172.608 155.281 172.851 154.854 173.195Z" fill="#475569"/>
<path d="M82.0321 170.628C82.1019 170.747 82.0479 171.094 81.8385 171.662C81.7582 171.541 81.8333 171.199 82.0321 170.628Z" fill="#475569"/>
<path d="M108.581 155.893C108.379 156.067 108.142 155.945 107.928 155.48C108.109 155.39 108.307 155.543 108.581 155.893Z" fill="#475569"/>
<path d="M109.563 156.917C109.342 157.1 109.104 156.969 108.916 156.476C109.111 156.387 109.304 156.551 109.563 156.917Z" fill="#475569"/>
<path d="M87.3147 165.434C87.3813 165.482 86.9729 165.505 86.9596 165.38C86.9463 165.256 87.2482 165.386 87.3147 165.434Z" fill="#475569"/>
<path d="M189.116 152.833C189.109 152.814 189.123 152.852 189.116 152.833V152.833Z" fill="#475569"/>
<path d="M89.979 159.068C90.0101 159.068 89.7463 159.082 89.8271 159.023C89.9078 158.964 89.9479 159.069 89.979 159.068Z" fill="#475569"/>
<path d="M111.571 158.859C111.387 159.022 111.163 158.912 110.948 158.486C111.115 158.395 111.307 158.533 111.571 158.859Z" fill="#475569"/>
<path d="M82.9893 165.594C83.179 165.691 83.1646 165.865 82.8983 166.076C82.7709 166.123 82.9096 165.683 82.9893 165.594Z" fill="#475569"/>
<path d="M95.6818 164.732C95.8847 164.574 96.1184 164.706 96.3297 165.17C96.1481 165.255 95.9498 165.096 95.6818 164.732Z" fill="#475569"/>
<path d="M112.586 159.85C112.395 160.011 112.174 159.895 111.983 159.452C112.15 159.376 112.33 159.525 112.586 159.85Z" fill="#475569"/>
<path d="M113.565 161.082C113.399 161.118 113.213 160.915 113.028 160.464C113.195 160.433 113.368 160.643 113.565 161.082Z" fill="#475569"/>
<path d="M86.5727 164.91C86.3596 165.097 86.1136 164.971 85.8972 164.481C86.086 164.388 86.2902 164.547 86.5727 164.91Z" fill="#475569"/>
<path d="M135.262 148.081C135.227 148.198 134.979 147.812 134.967 147.583C135.176 147.5 135.291 147.703 135.262 148.081Z" fill="#475569"/>
<path d="M85.5491 163.939C85.3492 164.115 85.0944 163.985 84.8274 163.508C85.0022 163.412 85.2286 163.57 85.5491 163.939Z" fill="#475569"/>
<path d="M95.7063 143.763C95.4121 144.031 95.1522 143.916 94.8397 143.481C94.7293 143.291 95.1435 143.139 95.3565 143.078C95.6073 143.182 95.6451 143.347 95.7063 143.763Z" fill="#475569"/>
<path d="M104.71 143.931C104.872 143.68 105.109 143.739 105.363 144.182C105.212 144.296 105.014 144.188 104.71 143.931Z" fill="#475569"/>
<path d="M96.4695 144.722C96.4884 144.838 96.2058 144.901 96.2058 144.901C96.2058 144.901 95.9993 144.699 96.0268 144.56C96.0543 144.421 96.4505 144.606 96.4695 144.722Z" fill="#475569"/>
<path d="M188.688 144.604C188.919 144.436 189.162 144.57 189.299 145.065C189.084 145.131 188.919 144.957 188.688 144.604Z" fill="#475569"/>
<path d="M190.667 146.993C190.64 146.871 190.952 146.77 190.952 146.77C190.952 146.77 191.192 146.994 191.16 147.154C190.942 147.339 190.798 147.272 190.667 146.993Z" fill="#475569"/>
<path d="M74.0589 180.147C73.7057 179.942 73.7803 179.659 74.3696 179.357C74.5074 179.53 74.3749 179.773 74.0589 180.147Z" fill="#475569"/>
<path d="M191.501 148.667C191.884 148.522 192.132 148.693 192.4 149.175C192.297 149.394 192.106 149.402 191.628 149.368C191.342 149.327 191.433 148.883 191.501 148.667Z" fill="#475569"/>
<path d="M102.565 149.901C102.348 150.065 102.149 149.948 102.013 149.524C102.224 149.41 102.393 149.544 102.565 149.901Z" fill="#475569"/>
<path d="M100.064 178.528C100.413 178.705 100.359 178.955 99.8267 179.229C99.685 179.073 99.7899 178.856 100.064 178.528Z" fill="#475569"/>
<path d="M174.93 150.29C174.765 150.052 174.898 149.823 175.378 149.706C175.455 149.935 175.29 150.095 174.93 150.29Z" fill="#475569"/>
<path d="M135.194 151.17C135.12 151.253 135.025 150.831 135.134 150.644C135.365 150.663 135.373 150.873 135.194 151.17Z" fill="#475569"/>
<path d="M105.578 152.878C105.39 153.02 105.176 152.895 104.986 152.465C105.153 152.391 105.333 152.541 105.578 152.878Z" fill="#475569"/>
<path d="M169.171 67.3722C169.311 67.5222 169.22 67.717 168.862 67.9149C168.787 67.7797 168.902 67.6126 169.171 67.3722Z" fill="#475569"/>
<path d="M154.317 74.1867C154.265 74.221 154.126 74.005 154.126 74.005C154.126 74.005 154.306 73.8224 154.415 73.8918C154.523 73.9613 154.369 74.1524 154.317 74.1867Z" fill="#475569"/>
<path d="M162.982 74.4714C163.187 74.6447 163.119 74.8198 162.722 74.9207C162.565 74.9132 162.881 74.54 162.982 74.4714Z" fill="#475569"/>
<path d="M162.085 75.3664C162.268 75.5498 162.174 75.7567 161.743 75.9069C161.677 75.7504 161.811 75.5969 162.085 75.3664Z" fill="#475569"/>
<path d="M160.991 76.5381C161.039 76.543 161.012 76.8572 160.937 76.7787C160.861 76.7002 160.942 76.5332 160.991 76.5381Z" fill="#475569"/>
<path d="M157.983 79.4052C158.146 79.5483 158.079 79.7276 157.725 79.8779C157.661 79.7509 157.766 79.615 157.983 79.4052Z" fill="#475569"/>
<path d="M157.087 80.4742C157.191 80.5967 157.11 80.882 156.828 81.3209C156.714 81.1912 156.805 80.9121 157.087 80.4742Z" fill="#475569"/>
<path d="M174.999 61.4741C175.208 61.6545 175.139 61.8299 174.739 61.925C174.582 61.9132 174.894 61.5379 174.999 61.4741Z" fill="#475569"/>
<path d="M174.089 62.3747C174.28 62.5588 174.188 62.7732 173.754 62.9438C173.675 62.7816 173.806 62.6165 174.089 62.3747Z" fill="#475569"/>
<path d="M173.124 63.3676C173.294 63.5562 173.185 63.7762 172.745 63.9623C172.669 63.7977 172.813 63.6212 173.124 63.3676Z" fill="#475569"/>
<path d="M172.125 64.3549C172.259 64.5232 172.147 64.7232 171.748 64.9002C171.688 64.7547 171.828 64.5911 172.125 64.3549Z" fill="#475569"/>
<path d="M170.128 66.3828C170.297 66.5719 170.189 66.7906 169.753 66.9787C169.671 66.8114 169.812 66.6328 170.128 66.3828Z" fill="#475569"/>
<path d="M167.477 107.794C167.637 107.8 167.658 107.993 167.67 108.089C167.682 108.184 167.447 108.291 167.32 108.316C167.038 108.112 167.079 107.928 167.477 107.794Z" fill="#475569"/>
<path d="M145.241 101.172C145.04 101.003 145.116 100.8 145.519 100.616C145.613 100.767 145.504 100.935 145.241 101.172Z" fill="#475569"/>
<path d="M152.042 101.485C152.29 101.665 152.217 101.89 151.77 102.114C151.649 101.955 151.758 101.76 152.042 101.485Z" fill="#475569"/>
<path d="M143.968 103.235C143.803 103.032 143.945 102.773 144.435 102.501C144.522 102.676 144.353 102.906 143.968 103.235Z" fill="#475569"/>
<path d="M150.903 103.531C151.144 103.668 151.104 103.855 150.717 104.037C150.618 103.907 150.702 103.757 150.903 103.531Z" fill="#475569"/>
<path d="M150.241 104.411C150.419 104.605 150.29 104.871 149.814 105.175C149.719 105.009 149.874 104.767 150.241 104.411Z" fill="#475569"/>
<path d="M141.001 107.224C140.746 107.006 140.855 106.727 141.397 106.453C141.508 106.639 141.352 106.874 141.001 107.224Z" fill="#475569"/>
<path d="M149.086 106.489C149.308 106.667 149.219 106.906 148.779 107.173C148.665 107.021 148.782 106.804 149.086 106.489Z" fill="#475569"/>
<path d="M140.437 108.087C140.232 107.982 140.254 107.831 140.567 107.697C140.697 107.689 140.502 108.018 140.437 108.087Z" fill="#475569"/>
<path d="M148.394 107.464C148.435 107.614 148.294 107.919 147.898 108.303C147.793 108.096 147.983 107.842 148.394 107.464Z" fill="#475569"/>
<path d="M146.977 109.487C147.186 109.653 147.119 109.842 146.721 109.992C146.634 109.846 146.738 109.698 146.977 109.487Z" fill="#475569"/>
<path d="M146.158 110.387C146.309 110.561 146.19 110.801 145.771 111.078C145.678 110.922 145.817 110.701 146.158 110.387Z" fill="#475569"/>
<path d="M165.107 111.297C164.962 111.114 165.074 110.92 165.488 110.78C165.544 110.934 165.402 111.084 165.107 111.297Z" fill="#475569"/>
<path d="M164.245 112.258C164.092 112.117 164.164 111.931 164.514 111.756C164.581 111.883 164.473 112.031 164.245 112.258Z" fill="#475569"/>
<path d="M144.935 112.564C144.981 112.558 145.001 112.874 144.918 112.8C144.834 112.726 144.888 112.57 144.935 112.564Z" fill="#475569"/>
<path d="M163.243 113.192C163.042 113.01 163.118 112.831 163.525 112.73C163.596 112.884 163.484 113.012 163.243 113.192Z" fill="#475569"/>
<path d="M144.023 113.391C144.205 113.547 144.131 113.745 143.742 113.917C143.67 113.779 143.784 113.626 144.023 113.391Z" fill="#475569"/>
<path d="M136.118 115.149C135.769 114.955 135.835 114.685 136.398 114.393C136.538 114.559 136.417 114.793 136.118 115.149Z" fill="#475569"/>
<path d="M167.951 117.402C167.95 117.391 167.956 117.578 167.948 117.497C167.94 117.415 167.953 117.414 167.951 117.402Z" fill="#475569"/>
<path d="M158.444 119.056C158.385 119.117 158.196 118.908 158.196 118.908C158.196 118.908 158.367 118.683 158.508 118.687C158.649 118.69 158.503 118.996 158.444 119.056Z" fill="#475569"/>
<path d="M156.165 123.098C155.855 122.915 155.917 122.686 156.415 122.455C156.545 122.61 156.44 122.808 156.165 123.098Z" fill="#475569"/>
<path d="M139.077 84.2349C139.021 84.2277 139.139 83.884 139.197 83.9766C139.255 84.0692 139.132 84.2421 139.077 84.2349Z" fill="#475569"/>
<path d="M147.926 86.3617C147.936 86.3521 147.935 86.58 147.912 86.4907C147.889 86.4015 147.916 86.3712 147.926 86.3617Z" fill="#475569"/>
<path d="M139.268 91.3178C139.367 91.4967 139.258 91.6338 138.917 91.6503C138.785 91.6088 139.16 91.3551 139.268 91.3178Z" fill="#475569"/>
<path d="M154.187 96.5034C154.501 96.7035 154.418 96.9821 153.864 97.2919C153.737 97.129 153.868 96.8819 154.187 96.5034Z" fill="#475569"/>
<path d="M89.5369 105.774C86.6027 104.953 83.3784 104.125 80.518 102.61C79.3173 101.974 78.8867 99.8842 78.106 98.4552C79.7078 97.8683 81.5651 96.449 82.8642 96.8478C87.0619 98.1367 91.0544 100.094 95.3315 102.074C95.537 102.355 95.0456 102.429 94.8008 102.476C91.8795 101.849 88.6388 100.194 89.5369 105.774Z" fill="#475569"/>
<path d="M187.814 44.0752C186.641 42.5608 185.669 40.7914 184.659 38.6753C185.836 39.1411 187.054 39.9536 188.442 41.041C188.413 42.1506 188.214 42.9854 187.814 44.0752Z" fill="#475569"/>
<path d="M153.321 64.3983C152.814 65.4359 151.989 66.5396 150.885 67.7452C151.404 66.7196 152.204 65.592 153.321 64.3983Z" fill="#475569"/>
<path d="M158.726 25.8014C160.12 25.9043 161.678 26.3189 163.418 27.0302C162.03 26.9224 160.459 26.5178 158.726 25.8014Z" fill="#475569"/>
<path d="M80.1243 78.6004C78.4969 78.7753 76.5489 78.8461 74.1897 78.8434C75.7869 78.6786 77.7954 78.5874 80.1243 78.6004Z" fill="#475569"/>
<path d="M71.9943 79.2564C71.0012 79.9224 69.6438 80.5892 67.9576 81.2968C68.9626 80.6441 70.2963 79.9507 71.9943 79.2564Z" fill="#475569"/>
<path d="M86.525 47.7354C85.3037 47.9111 83.9775 47.8467 82.2745 47.6583C83.4052 47.5214 84.9126 47.5084 86.525 47.7354Z" fill="#475569"/>
<path d="M118.218 97.3634C118.907 96.7036 119.939 96.0344 121.288 95.3224C120.59 95.9711 119.575 96.6625 118.218 97.3634Z" fill="#475569"/>
<path d="M154.167 13.6678C154.377 15.0591 154.429 16.7557 154.411 18.8713C154.23 17.5179 154.12 15.7454 154.167 13.6678Z" fill="#475569"/>
<path d="M105.064 110.347C104.628 110.506 103.87 110.635 102.96 110.568C103.453 110.354 104.098 110.335 105.064 110.347Z" fill="#475569"/>
<path d="M63.0504 86.5862C63.1005 86.8657 63.0148 87.3366 62.7492 87.9683C62.6844 87.6786 62.7995 87.2281 63.0504 86.5862Z" fill="#475569"/>
<path d="M159.084 7.29972C158.914 7.50606 158.502 7.765 157.831 8.05988C157.996 7.84799 158.419 7.60015 159.084 7.29972Z" fill="#475569"/>
<path d="M133.786 84.7919C134.097 84.7428 134.618 84.8414 135.304 85.147C134.978 85.2159 134.488 85.0778 133.786 84.7919Z" fill="#475569"/>
<path d="M128.984 90.1488C128.865 89.8805 128.882 89.4264 128.835 88.6366C128.888 88.8549 129.004 89.409 128.984 90.1488Z" fill="#475569"/>
<path d="M125.305 83.7796C125.085 83.9924 124.672 84.1135 123.935 84.2614C124.112 84.0882 124.612 83.8881 125.305 83.7796Z" fill="#475569"/>
<path d="M62.0127 89.524C62.1431 89.869 62.0913 90.3983 61.8103 91.0724C61.6643 90.7142 61.7474 90.2112 62.0127 89.524Z" fill="#475569"/>
<path d="M100.393 91.9366C100.077 91.9833 99.5517 91.8729 98.8685 91.5303C99.2019 91.4586 99.6934 91.619 100.393 91.9366Z" fill="#475569"/>
<path d="M174.411 19.9285C174.298 19.657 174.269 19.1858 174.45 18.578C174.605 18.8706 174.55 19.2997 174.411 19.9285Z" fill="#475569"/>
<path d="M110.676 91.3331C110.684 91.6034 110.446 91.7469 109.948 91.7274C110.02 91.5375 110.267 91.4181 110.676 91.3331Z" fill="#475569"/>
<path d="M109.309 109.322C109.114 109.532 108.681 109.763 107.995 109.912C108.186 109.667 108.629 109.505 109.309 109.322Z" fill="#475569"/>
<path d="M101.225 104.225C101.502 104.116 102.037 104.045 102.828 104.097C102.55 104.234 102.017 104.249 101.225 104.225Z" fill="#475569"/>
<path d="M156.251 9.28792C156.369 9.57611 156.216 9.84215 155.771 10.1829C155.745 9.98373 155.913 9.65314 156.251 9.28792Z" fill="#475569"/>
<path d="M124.183 93.3392C124.349 93.1438 124.753 92.9015 125.407 92.6067C125.245 92.8002 124.833 93.0462 124.183 93.3392Z" fill="#475569"/>
<path d="M94.021 64.0862C93.9555 63.7566 94.0475 63.2073 94.3751 62.4894C94.4667 62.8361 94.3226 63.3513 94.021 64.0862Z" fill="#475569"/>
<path d="M169.258 46.4787C169.318 46.78 169.242 47.2145 168.936 47.6424C168.845 47.2945 168.984 46.9532 169.258 46.4787Z" fill="#475569"/>
<path d="M79.1091 48.3695C78.944 48.531 78.5696 48.6817 77.9671 48.8286C78.126 48.6694 78.5128 48.5141 79.1091 48.3695Z" fill="#475569"/>
<path d="M172.522 10.0851C172.273 10.2442 172.016 10.0755 171.856 9.52233C172.077 9.46082 172.264 9.66721 172.522 10.0851Z" fill="#475569"/>
<path d="M171.558 8.81527C171.401 8.96403 171.166 8.86168 170.892 8.46553C171.033 8.38401 171.242 8.51483 171.558 8.81527Z" fill="#475569"/>
<path d="M174.564 15.1244C174.298 15.2619 174.06 15.1031 174.003 14.6073C174.266 14.565 174.402 14.7508 174.564 15.1244Z" fill="#475569"/>
<path d="M157.216 8.38149C157.36 8.57238 157.224 8.81062 156.766 9.04567C156.692 8.87717 156.856 8.67263 157.216 8.38149Z" fill="#475569"/>
<path d="M154.958 11.5081C155.141 11.6488 155.08 11.832 154.723 12.0048C154.646 11.8797 154.743 11.7318 154.958 11.5081Z" fill="#475569"/>
<path d="M161.172 6.43185C161.213 6.44227 161.112 6.74199 161.073 6.64901C161.035 6.55604 161.131 6.42144 161.172 6.43185Z" fill="#475569"/>
<path d="M168.441 6.78367C168.564 6.91261 168.154 6.96965 168.154 6.96965C168.154 6.96965 167.845 6.69409 167.773 6.49988C167.929 6.38287 168.135 6.49923 168.441 6.78367Z" fill="#475569"/>
<path d="M75.7047 68.8118C75.8853 68.6258 76.1304 68.7308 76.4032 69.1684C76.244 69.2708 76.0235 69.1381 75.7047 68.8118Z" fill="#475569"/>
<path d="M90.0944 69.2649C89.9619 69.0931 90.0818 68.8732 90.4878 68.6449C90.5674 68.8029 90.425 68.9962 90.0944 69.2649Z" fill="#475569"/>
<path d="M87.8486 70.2727C87.7062 70.0166 87.8598 69.7813 88.3522 69.6968C88.4108 69.9509 88.2286 70.0995 87.8486 70.2727Z" fill="#475569"/>
<path d="M148.223 69.3506C148.361 69.5338 148.254 69.7195 147.862 69.8352C147.798 69.6663 147.932 69.5289 148.223 69.3506Z" fill="#475569"/>
<path d="M144.708 71.5095C144.67 71.6242 144.386 71.8104 143.853 72.0604C143.889 71.9432 144.176 71.7621 144.708 71.5095Z" fill="#475569"/>
<path d="M143.295 72.4091C143.478 72.6301 143.371 72.854 142.92 72.9696C142.839 72.7537 142.983 72.604 143.295 72.4091Z" fill="#475569"/>
<path d="M91.0098 68.2865C90.869 68.1007 90.9796 67.9111 91.3765 67.7753C91.4525 67.9476 91.3186 68.0988 91.0098 68.2865Z" fill="#475569"/>
<path d="M138.965 75.4094C139.111 75.4365 139.009 75.733 139.009 75.733C139.009 75.733 138.626 75.6736 138.575 75.5464C138.525 75.4192 138.819 75.3823 138.965 75.4094Z" fill="#475569"/>
<path d="M157.946 40.5199C158.157 40.662 158.106 40.8465 157.731 41.0176C157.644 40.8893 157.736 40.7421 157.946 40.5199Z" fill="#475569"/>
<path d="M137.082 76.5227C137.139 76.5159 137.071 76.8432 136.993 76.7788C136.915 76.7144 137.024 76.5295 137.082 76.5227Z" fill="#475569"/>
<path d="M135.401 77.4282C135.501 77.6369 135.313 77.8804 134.799 78.0936C134.751 77.9038 134.964 77.7037 135.401 77.4282Z" fill="#475569"/>
<path d="M134.242 78.3754C134.384 78.576 134.24 78.8113 133.769 79.0239C133.698 78.8467 133.87 78.6497 134.242 78.3754Z" fill="#475569"/>
<path d="M133.208 79.402C133.351 79.5775 133.222 79.8238 132.786 80.1075C132.708 79.9552 132.86 79.7312 133.208 79.402Z" fill="#475569"/>
<path d="M166.103 50.458C166.324 50.6651 166.227 50.8841 165.755 51.045C165.663 50.8688 165.798 50.6965 166.103 50.458Z" fill="#475569"/>
<path d="M155.759 50.8268C155.879 50.8461 155.998 51.0198 156.051 51.5012C155.868 51.5426 155.793 51.2668 155.759 50.8268Z" fill="#475569"/>
<path d="M165.161 51.3766C165.287 51.5461 165.161 51.7716 164.746 52.0103C164.677 51.8578 164.828 51.6608 165.161 51.3766Z" fill="#475569"/>
<path d="M164.217 52.3721C164.329 52.5497 164.184 52.7686 163.751 52.9904C163.691 52.834 163.856 52.6407 164.217 52.3721Z" fill="#475569"/>
<path d="M72.8029 53.5935C72.8656 53.5048 73.0374 53.7554 73.0374 53.7554C73.0374 53.7554 72.8733 54.0115 72.7248 54.0479C72.5763 54.0844 72.7402 53.6823 72.8029 53.5935Z" fill="#475569"/>
<path d="M163.224 53.392C163.376 53.5821 163.244 53.8219 162.785 54.065C162.708 53.9003 162.868 53.6914 163.224 53.392Z" fill="#475569"/>
<path d="M159.928 48.2311C159.767 48.0165 159.916 47.7593 160.428 47.526C160.502 47.7116 160.318 47.9244 159.928 48.2311Z" fill="#475569"/>
<path d="M71.8423 55.5825C72.1086 55.6797 72.0961 55.8618 71.7316 56.0856C71.5839 56.1412 71.7679 55.6815 71.8423 55.5825Z" fill="#475569"/>
<path d="M160.052 57.4488C160.225 57.6363 160.135 57.8117 159.732 57.8943C159.678 57.7417 159.801 57.6201 160.052 57.4488Z" fill="#475569"/>
<path d="M158.981 58.4006C159.144 58.5354 159.082 58.7184 158.728 58.8813C158.67 58.7628 158.776 58.6254 158.981 58.4006Z" fill="#475569"/>
<path d="M158.105 59.3748C158.251 59.517 158.178 59.6916 157.843 59.8482C157.77 59.7174 157.872 59.5764 158.105 59.3748Z" fill="#475569"/>
<path d="M72.7739 64.8978C72.7889 64.8565 73.0938 64.9472 72.9937 64.9912C72.8937 65.0352 72.7589 64.9391 72.7739 64.8978Z" fill="#475569"/>
<path d="M162.409 45.0059C162.415 44.9696 162.392 45.2245 162.334 45.1598C162.276 45.095 162.403 45.0423 162.409 45.0059Z" fill="#475569"/>
<path d="M73.6675 66.6711C73.8663 66.564 74.0723 66.7201 74.2312 67.1692C74.0494 67.2265 73.8796 67.0505 73.6675 66.6711Z" fill="#475569"/>
<path d="M74.7904 68.0913C74.7773 68.0641 75.0259 68.0635 74.9631 68.1245C74.9003 68.1855 74.8035 68.1185 74.7904 68.0913Z" fill="#475569"/>
<path d="M127.85 98.5006C127.832 98.5005 127.848 98.5335 127.875 98.487C127.902 98.4406 127.869 98.5007 127.85 98.5006Z" fill="#475569"/>
<path d="M114.034 100.297C113.906 100.124 114.018 99.9382 114.405 99.791C114.471 99.9462 114.336 100.098 114.034 100.297Z" fill="#475569"/>
<path d="M157.724 24.9852C157.84 24.8634 158.039 24.9347 158.281 25.2481C158.176 25.3059 158.003 25.202 157.724 24.9852Z" fill="#475569"/>
<path d="M105.455 104.192C105.447 103.97 105.73 103.835 106.309 103.799C106.286 103.961 106.001 104.088 105.455 104.192Z" fill="#475569"/>
<path d="M116.95 105.358C116.955 105.341 116.946 105.525 116.945 105.447C116.945 105.369 116.945 105.375 116.95 105.358Z" fill="#475569"/>
<path d="M114.329 107.353C114.42 107.54 114.279 107.713 113.878 107.811C113.836 107.641 113.996 107.509 114.329 107.353Z" fill="#475569"/>
<path d="M55.7179 98.2111C55.6239 98.3221 55.6242 97.8259 55.623 97.5778C55.8692 97.5497 55.9325 97.8064 55.7179 98.2111Z" fill="#475569"/>
<path d="M112.412 108.398C112.554 108.652 112.398 108.894 111.895 108.989C111.841 108.741 112.029 108.589 112.412 108.398Z" fill="#475569"/>
<path d="M156.649 23.7535C156.811 23.673 156.978 23.8117 157.097 24.2005C156.97 24.2215 156.839 24.0621 156.649 23.7535Z" fill="#475569"/>
<path d="M118.321 87.3477C118.401 87.5214 118.258 87.6844 117.871 87.7877C117.835 87.6333 117.992 87.503 118.321 87.3477Z" fill="#475569"/>
<path d="M67.4372 81.4515C67.5365 81.6558 67.3461 81.9118 66.8332 82.1718C66.7734 81.9811 66.9855 81.7569 67.4372 81.4515Z" fill="#475569"/>
<path d="M132.678 83.7609C132.865 83.6271 133.083 83.7591 133.279 84.1966C133.115 84.2625 132.933 84.104 132.678 83.7609Z" fill="#475569"/>
<path d="M182.313 36.4113C182.311 36.3847 182.257 36.4183 182.327 36.4095C182.397 36.4008 182.316 36.4379 182.313 36.4113Z" fill="#475569"/>
<path d="M163.038 35.343C163.089 35.305 162.999 35.6803 162.902 35.6176C162.804 35.555 162.987 35.381 163.038 35.343Z" fill="#475569"/>
<path d="M166.443 33.4008C166.543 33.6274 166.369 33.8556 165.881 33.9783C165.838 33.7553 166.038 33.5985 166.443 33.4008Z" fill="#475569"/>
<path d="M119.932 86.3899C119.958 86.3631 119.969 86.6732 119.89 86.6027C119.811 86.5322 119.905 86.4167 119.932 86.3899Z" fill="#475569"/>
<path d="M91.5011 87.7662C91.5702 87.8729 91.2653 87.8784 91.2653 87.8784C91.2653 87.8784 91.0418 87.6711 91.0315 87.5189C91.1823 87.4305 91.3192 87.5281 91.5011 87.7662Z" fill="#475569"/>
<path d="M116.331 88.3453C116.438 88.5507 116.302 88.7373 115.893 88.8094C115.851 88.6131 116.008 88.4903 116.331 88.3453Z" fill="#475569"/>
<path d="M95.168 89.4249C95.1392 89.4346 95.2561 89.3022 95.2884 89.3608C95.3207 89.4194 95.1969 89.4152 95.168 89.4249Z" fill="#475569"/>
<path d="M97.4858 90.7208C97.3176 90.892 97.1504 90.8171 97.0639 90.4461C97.0784 90.2972 97.4208 90.6215 97.4858 90.7208Z" fill="#475569"/>
<path d="M61.0772 92.4323C61.2448 92.4974 61.2955 92.6623 61.2686 93.0739C60.9008 93.1205 60.824 92.8576 61.0772 92.4323Z" fill="#475569"/>
<path d="M137.278 92.3393C137.395 92.5258 137.27 92.7131 136.868 92.8353C136.809 92.662 136.958 92.5188 137.278 92.3393Z" fill="#475569"/>
<path d="M134.252 94.3736C134.396 94.5644 134.274 94.7777 133.846 94.951C133.771 94.7757 133.921 94.604 134.252 94.3736Z" fill="#475569"/>
<path d="M193.575 132.543C193.371 132.404 193.188 132.056 192.964 131.485C193.147 131.619 193.371 131.976 193.575 132.543Z" fill="#475569"/>
<path d="M198.645 139.815C198.402 139.658 198.115 139.243 197.767 138.566C198.004 138.722 198.303 139.139 198.645 139.815Z" fill="#475569"/>
<path d="M190.759 127.882C190.399 128.073 190.208 127.922 190.222 127.439C190.306 127.261 190.608 127.239 190.756 127.281C190.903 127.324 190.806 127.696 190.759 127.882Z" fill="#475569"/>
<path d="M191.581 128.98C191.369 129.097 191.146 128.932 190.945 128.467C191.15 128.38 191.351 128.558 191.581 128.98Z" fill="#475569"/>
<path d="M195.557 135.057C195.306 135.205 195.06 135.032 194.888 134.499C195.126 134.412 195.325 134.61 195.557 135.057Z" fill="#475569"/>
<path d="M192.626 130.905C192.42 131.075 192.219 130.969 192.089 130.547C192.286 130.452 192.443 130.585 192.626 130.905Z" fill="#475569"/>
<path d="M194.645 133.846C194.434 133.994 194.258 133.879 194.199 133.464C194.38 133.412 194.501 133.551 194.645 133.846Z" fill="#475569"/>
<path d="M200.558 142.618C200.543 142.647 200.341 142.615 200.404 142.577C200.467 142.54 200.573 142.59 200.558 142.618Z" fill="#475569"/>
<path d="M202.652 145.962C202.424 146.107 202.252 145.995 202.248 145.596C202.325 145.449 202.616 145.844 202.652 145.962Z" fill="#475569"/>
<path d="M203.558 146.72C203.383 146.872 203.184 146.779 202.963 146.44C203.138 146.29 203.336 146.384 203.558 146.72Z" fill="#475569"/>
<path d="M204.15 149.208C204.041 149.212 203.997 148.901 204.117 148.803C204.237 148.705 204.406 148.93 204.406 148.93C204.406 148.93 204.259 149.203 204.15 149.208Z" fill="#475569"/>
<path d="M93.1567 121.004C92.9024 118.965 92.8336 116.599 92.8538 113.802C93.0759 115.806 93.2091 118.242 93.1567 121.004Z" fill="#475569"/>
<path d="M79.5052 142.847C78.5591 143.178 77.4826 143.231 76.0082 143.206C76.865 142.941 78.1199 142.756 79.5052 142.847Z" fill="#475569"/>
<path d="M99.0625 130.385C99.3382 130.762 99.3986 131.219 99.3695 132.011C99.1357 131.719 98.9915 131.091 99.0625 130.385Z" fill="#475569"/>
<path d="M72.5545 142.908C72.183 143.181 71.7309 143.232 70.9446 143.203C71.2315 142.978 71.8526 142.833 72.5545 142.908Z" fill="#475569"/>
<path d="M93.0961 111.098C92.8613 110.559 92.809 109.81 92.8468 108.694C93.0509 109.182 93.1647 110.035 93.0961 111.098Z" fill="#475569"/>
<path d="M91.4301 106.833C91.1362 106.872 90.6749 106.742 90.0721 106.413C90.3747 106.365 90.8187 106.514 91.4301 106.833Z" fill="#475569"/>
<path d="M93.0941 132.237C92.9197 132.169 92.8681 131.998 92.8943 131.57C93.2784 131.52 93.3599 131.793 93.0941 132.237Z" fill="#475569"/>
<path d="M93.0937 125.238C92.9191 125.17 92.8675 124.998 92.8933 124.569C93.2779 124.518 93.3599 124.792 93.0937 125.238Z" fill="#475569"/>
<path d="M188.267 67.27C187.859 65.2821 187.804 63.2343 187.833 60.7546C191.826 62.2435 191.843 64.5614 188.267 67.27Z" fill="#475569"/>
<path d="M185.533 92.7213C183.922 93.0959 182.194 93.207 180.037 93.2416C181.545 92.9293 183.48 92.6936 185.533 92.7213Z" fill="#475569"/>
<path d="M188.575 122.107C188.296 121.898 187.995 121.412 187.777 120.629C188.09 120.832 188.321 121.331 188.575 122.107Z" fill="#475569"/>
<path d="M189.663 125.953C189.415 126.097 189.242 125.971 189.216 125.556C189.457 125.477 189.581 125.616 189.663 125.953Z" fill="#475569"/>
<path d="M187.449 93.7595C187.439 93.8344 187.082 93.7594 187.148 93.6697C187.214 93.58 187.459 93.6845 187.449 93.7595Z" fill="#475569"/>
<path d="M184.645 138.997C184.028 138.36 183.339 137.429 182.661 136.177C183.305 136.804 183.938 137.753 184.645 138.997Z" fill="#475569"/>
<path d="M187.311 142.178C187.137 142.242 186.975 142.084 186.759 141.749C186.963 141.599 187.169 141.728 187.311 142.178Z" fill="#475569"/>
</svg>
